<?xml version="1.0" encoding="utf-8"?>
<!-- Generator: Adobe Illustrator 24.3.0, SVG Export Plug-In . SVG Version: 6.00 Build 0)  -->
<svg version="1.1" id="Layer_1" xmlns="http://www.w3.org/2000/svg" xmlns:xlink="http://www.w3.org/1999/xlink" x="0px" y="0px"
	 viewBox="0 0 841 595" style="enable-background:new 0 0 841 595;" xml:space="preserve">
<style type="text/css">
	.st0{display:none;}
	.st1{display:inline;}
	.st2{fill:#FFFFFF;}
	.st3{display:inline;fill:#FFFFFF;}
	.st4{fill:#E00E1E;}
	.st5{fill:#ED1C24;}
	.st6{display:inline;fill:#4A494A;}
</style>
<g id="Layer_1_1_" class="st0">
	<polygon class="st1" points="553.54,201.5 558.8,200.92 641.42,251.46 640.77,254.23 	"/>
	<polygon class="st1" points="595.87,193.92 640.3,227.79 636.97,229.12 591.47,193.92 	"/>
	<polygon class="st1" points="556.72,203.42 497.61,243.1 496.52,240.53 553.54,201.5 	"/>
	<polygon class="st1" points="569.41,323.36 547.55,302.72 534.61,288.56 520.31,272.44 501.04,240.8 497.61,243.1 517.76,274.96 
		568.62,326.94 	"/>
	<polygon class="st1" points="543.64,232.29 595.87,193.92 591.47,193.92 542.65,229.93 	"/>
	<polygon class="st1" points="497.61,243.1 543.64,232.29 542.65,229.93 496.52,240.53 	"/>
	<polygon class="st1" points="556.72,203.42 593.62,195.58 591.47,193.92 553.54,201.5 	"/>
	<polygon class="st1" points="547.55,302.72 581.59,289.16 621.7,270.42 620.7,268.06 579.93,287.06 545.7,300.7 	"/>
	<polygon class="st1" points="504.7,254.32 506.74,297.16 526.11,324.05 525.5,327.56 504.84,298.17 502.3,250.51 	"/>
	<polygon class="st1" points="636.84,251.85 651.4,237.42 673.6,230.68 674.75,260.32 657.53,283.74 639.1,296.35 616.35,270.09 
		620.7,268.06 	"/>
	<polygon class="st1" points="664.92,273.69 694.69,278.21 694.81,280.93 663.22,275.99 	"/>
	<polygon class="st1" points="674.59,256.22 697.54,270.27 696.78,273.37 674.75,260.32 	"/>
	<polygon class="st1" points="568.81,343.91 599.5,353.01 598.14,349.79 570.61,341.44 	"/>
	<polygon class="st1" points="539.98,359.67 572.13,329.8 594.03,316.81 592.58,313.37 572.59,325.35 581.59,289.16 577.83,290.66 
		568.62,326.94 538.53,356.23 	"/>
	<polygon class="st1" points="530.7,347.81 536.35,339.79 535.44,337.64 528.69,346.1 	"/>
	<polygon class="st1" points="652.66,221.74 667.67,232.48 651.4,237.42 620.7,268.06 611.44,248.42 615.91,235.86 	"/>
	<polyline class="st1" points="545.7,300.7 620.7,268.06 639.1,296.35 572.13,329.8 543.72,301.49 545.7,300.7 	"/>
	<polyline class="st1" points="543.64,232.29 565.89,258.85 591.41,281.71 543.72,301.49 517.76,274.96 497.61,243.1 501.04,240.8 
		542.65,229.93 543.64,232.29 	"/>
	<polyline class="st1" points="551.05,226.85 549.11,238.81 546.67,236.47 547.68,228.86 551.05,226.85 	"/>
	<polyline class="st1" points="511.8,265.54 505.55,272.2 506.74,297.16 509.1,300.44 519.57,298.19 523.85,299.68 526.11,324.05 
		524.3,329.6 529.29,335.3 535.44,337.64 537.44,345.13 534.66,349.56 538.53,356.23 568.62,326.94 511.8,265.54 	"/>
	<path class="st1" d="M544.88,355.11"/>
	<polyline class="st1" points="544.88,355.11 572.13,329.8 594.03,316.81 581.83,340.39 576.82,338.97 565.24,347 544.88,355.11 	
		"/>
	<polyline class="st1" points="668.36,269.01 680.28,273.42 682.22,264.75 672.68,260.71 668.36,269.01 	"/>
	<g class="st1">
		<path d="M599.72,241.56c-6.01-0.78-11.72,4.71-12.76,12.25c-1.04,7.54,3,14.29,9.01,15.07s11.72-4.71,12.76-12.25
			S605.73,242.33,599.72,241.56z M596.39,265.8c-4.55-0.59-7.57-5.86-6.76-11.77c0.81-5.91,5.15-10.22,9.7-9.64
			c4.55,0.59,7.57,5.86,6.76,11.77C605.28,262.08,600.94,266.39,596.39,265.8z"/>
	</g>
	<polygon class="st1" points="596.88,243.43 600.61,253.78 617.84,257.91 620.42,264.03 600.28,259.14 594.31,266.27 591.59,263.77 
		597.66,256.29 593.5,244.78 	"/>
	
		<ellipse transform="matrix(0.9496 -0.3134 0.3134 0.9496 -63.4796 207.781)" class="st1" cx="614.54" cy="301.34" rx="26.51" ry="28.94"/>
	
		<ellipse transform="matrix(0.8892 -0.4574 0.4574 0.8892 -110.5414 277.2636)" class="st1" cx="517.3" cy="366.91" rx="24.88" ry="27.19"/>
	
		<ellipse transform="matrix(0.8379 -0.5458 0.5458 0.8379 -36.4057 430.2551)" class="st1" cx="706.2" cy="276.42" rx="25.4" ry="28.41"/>
	
		<ellipse transform="matrix(0.8473 -0.5312 0.5312 0.8473 -88.1574 374.1516)" class="st1" cx="606.51" cy="340.37" rx="23.82" ry="27.24"/>
	<g class="st1">
		<path class="st2" d="M607.06,287.53c-6.66,1.47-10.61,8.86-8.84,16.5c1.77,7.64,8.61,12.63,15.26,11.16
			c6.66-1.47,10.61-8.86,8.84-16.5C620.55,291.05,613.72,286.05,607.06,287.53z M619.68,299.26c1.37,5.92-1.69,11.64-6.85,12.78
			c-5.16,1.14-10.45-2.73-11.83-8.65c-1.37-5.92,1.69-11.64,6.85-12.78C613.01,289.47,618.3,293.34,619.68,299.26z"/>
	</g>
	<g class="st1">
		<path class="st2" d="M507.54,354.84c-6.44,2.17-9.51,9.96-6.86,17.39c2.65,7.44,10.03,11.71,16.47,9.54
			c6.44-2.17,9.51-9.96,6.86-17.39C521.36,356.94,513.98,352.67,507.54,354.84z M521.45,365.23c2.06,5.76-0.32,11.8-5.32,13.48
			c-4.99,1.68-10.71-1.63-12.77-7.39s0.32-11.8,5.32-13.48C513.67,356.16,519.39,359.46,521.45,365.23z"/>
	</g>
	<g class="st1">
		<path d="M555.89,233.37L555.89,233.37c-1.28,0.16-2.56,0.49-3.82,0.99c-7.25,2.89-10.92,10.47-8.2,16.93
			c0.14,0.32,0.29,0.64,0.45,0.94h-0.06l5.16,10.51l22.34-3.03c0,0,3.55-0.4,5.11-1.28c0.15-0.03,0.3-0.08,0.44-0.13
			c1.85-0.74,2.58-3.18,1.62-5.45c0,0-1.27-3.71-2.32-3.89c-0.84-0.14-1.9,0.37-3.01,0.52l-2.87-7.15c0-0.94,0.17-3.2,1.87-4.03
			c2.17-1.05,6.46-2.58,6.46-2.58l-0.51-1.21C578.57,234.52,558.27,232.39,555.89,233.37z"/>
		<path d="M551.17,262.5c0,0,1.03,3.5,1.82,4.31s-2.94,2.68-3.76,5.64c-0.82,2.96-1.4,4.95-0.4,7.31s5.94,7.04,5.94,7.04
			s10.32,5.8,10.79,5.99s14.31-5.7,14.31-5.7s6.26-19.28,6.29-20.43s-6.16-5.21-6.16-5.21l-2.93,0.17l-1.74-3.2L551.17,262.5z"/>
		<path d="M592.6,250.72c0,0-1.85-1.02-3.94,0s-3.76,1.94-4.96,3.54s-3.71,7.18-3.71,7.18l6.16,5.21c0,0,1.21-0.18,2.05-1.27
			c0.83-1.08,2.95-3.56,2.93-4.37s-0.67-3.12-0.82-3.47s1.23-1.21,0.87-2.07c-0.36-0.86-0.85-1.54-1.04-1.84s0.57-0.64,1.16-0.92
			c0.59-0.28,1.39-0.07,1.6-0.64C593.13,251.51,593.72,251.09,592.6,250.72z"/>
		<path d="M619.79,263.15l-22.03-4.95c0,0-0.61-1.45-2.94,2.68s-3.51,6.54-3.51,6.54l-5.68-2.12l-8.32,22.88l46.39-19.42
			L619.79,263.15z"/>
	</g>
	<path class="st3" d="M570.83,242.59c0,0-0.81-0.56-1.26-1.88c-0.16-0.47-1.76-0.05-3.71,0.85c-1.94,0.9-4.76,2.94-5.67,4.16
		s-0.49,2.28-0.33,2.74c0.29,0.82,0.89,1.96,2.47,1.71s6.16-2.01,7.6-2.65c1.46-0.65,2.36-0.58,2.28-1.53
		c-0.03-0.32-0.43-1.97-0.7-2.38C571.2,243.13,570.83,242.59,570.83,242.59z"/>
</g>
<g id="Layer_2_1_">
	<g>
		<path class="st4" d="M250.64,280.91l21.7-77.81h3.8l25.4,36.88l45.93-36.88h8.37l-21.7,77.81h-16.75l13.27-47.58l-37.77,30.35
			l-20.61-30.35l-13.27,47.58L250.64,280.91L250.64,280.91z"/>
		<path class="st4" d="M395.85,237.71h-8.29c0.96-5.78-1.03-8.67-5.95-8.67c-2.3,0-4.5,0.85-6.62,2.55s-3.51,3.74-4.17,6.12
			l-7.23,25.94c-0.65,2.32-0.39,4.34,0.76,6.04s2.89,2.55,5.22,2.55c4.93,0,8.52-2.86,10.77-8.59h8.29
			c-3.89,11.51-11.05,17.26-21.48,17.26h-8.37c-4.57,0-8.01-1.7-10.34-5.09c-2.33-3.39-2.83-7.45-1.51-12.18l7.23-25.94
			c1.33-4.78,4.12-8.87,8.35-12.26s8.62-5.09,13.16-5.09h8.37C394.51,220.36,398.45,226.14,395.85,237.71z"/>
		<path class="st4" d="M428.92,237.71h25.04l-7.23,25.94c-1.6,5.73-4.58,10.04-8.95,12.93c-4.37,2.89-8.55,4.34-12.54,4.34H408.5
			c-4.57,0-8.01-1.7-10.34-5.09c-2.33-3.39-2.83-7.45-1.51-12.18l12.07-43.28c1.3-4.65,4.03-8.69,8.21-12.12s8.6-5.15,13.27-5.15
			h16.75c10.49,0,14.44,5.75,11.85,17.26h-8.37c0.95-5.73-1.02-8.59-5.9-8.59h-8.37c-2.3,0-4.5,0.84-6.61,2.53s-3.5,3.71-4.16,6.06
			l-12.07,43.28c-0.66,2.38-0.41,4.4,0.77,6.08s2.91,2.51,5.21,2.51c5.4-0.27,8.99-3.13,10.77-8.59l4.84-17.35h-8.37L428.92,237.71z
			"/>
		<path class="st4" d="M469.15,211.77l2.42-8.67h16.67l-2.42,8.67H469.15z M449.87,280.91l16.89-60.55h16.67l-16.89,60.55H449.87z"
			/>
		<path class="st4" d="M474.57,280.91l21.7-77.81h16.67l-21.7,77.81H474.57z"/>
		<path class="st4" d="M499.27,280.91l21.7-77.81h16.67l-21.7,77.81H499.27z"/>
	</g>
	<g>
		<path class="st4" d="M223.79,382.18l21.7-77.81h37.35c5.1,0,9.01,1.7,11.72,5.11c2.71,3.4,3.41,7.46,2.1,12.16l-1.22,4.38
			c-1.41,5.05-4.07,9.02-7.98,11.92c-3.91,2.89-9.07,4.67-15.47,5.35c6.21,0,10.38,1.74,12.52,5.21c2.14,3.47,2.57,7.49,1.29,12.06
			l-1.22,4.38c-1.3,4.67-4.28,8.72-8.92,12.14s-9.48,5.13-14.53,5.13h-37.34V382.18z M254.47,338.98h9.36c2.54,0,4.97-0.86,7.3-2.57
			s3.82-3.75,4.48-6.1l2.42-8.67c0.66-2.35,0.29-4.37-1.09-6.06s-3.34-2.53-5.88-2.53h-9.36L254.47,338.98z M244.84,373.51h9.36
			c2.54,0,4.97-0.85,7.29-2.55s3.81-3.71,4.46-6.04l2.42-8.67c1.61-5.78-0.7-8.67-6.94-8.67h-9.36L244.84,373.51z"/>
		<path class="st4" d="M296.61,382.18l16.89-60.55c1.32-4.73,4.28-8.79,8.88-12.18c4.6-3.39,9.46-5.09,14.56-5.09h18.72
			c5.1,0,9.01,1.7,11.72,5.11s3.41,7.46,2.1,12.16l-16.89,60.55h-18.63l9.65-34.61h-18.72l-9.65,34.61H296.61z M327.29,338.98h18.72
			l4.84-17.35c0.66-2.35,0.29-4.37-1.09-6.06s-3.34-2.53-5.88-2.53c-2.57,0-5,0.84-7.31,2.53s-3.79,3.71-4.45,6.06L327.29,338.98z"
			/>
		<path class="st4" d="M437.75,304.37l-16.89,60.55c-1.6,5.73-4.36,10.04-8.29,12.93c-3.93,2.89-8.98,4.34-15.16,4.34H378.7
			c-6.18,0-10.43-1.45-12.74-4.34c-2.31-2.89-2.67-7.2-1.07-12.93l4.84-17.35h18.63l-4.84,17.35c-0.66,2.35-0.29,4.37,1.09,6.06
			s3.34,2.53,5.88,2.53c2.57,0,5-0.84,7.31-2.53s3.79-3.71,4.45-6.06l16.89-60.55H437.75z"/>
		<path class="st4" d="M432.98,382.18l16.89-60.55c1.32-4.73,4.28-8.79,8.88-12.18c4.6-3.39,9.46-5.09,14.56-5.09h18.72
			c5.1,0,9.01,1.7,11.72,5.11s3.41,7.46,2.1,12.16l-16.89,60.55h-18.63l9.65-34.61h-18.72l-9.65,34.61H432.98z M463.66,338.98h18.72
			l4.84-17.35c0.66-2.35,0.29-4.37-1.09-6.06s-3.34-2.53-5.88-2.53c-2.57,0-5,0.84-7.31,2.53s-3.79,3.71-4.45,6.06L463.66,338.98z"
			/>
	</g>
</g>
<g id="Layer_3" class="st0">
	<polygon class="st1" points="599.67,207.63 604.92,208.27 673.72,276.43 672.46,278.98 	"/>
	<polygon class="st1" points="642.6,209.97 678.07,253.14 674.52,253.66 638.33,208.96 	"/>
	<polygon class="st1" points="602.31,210.23 535.67,235.28 535.2,232.52 599.67,207.63 	"/>
	<polygon class="st1" points="587.12,329.88 570.59,304.77 561.24,288.02 551.04,269.04 539.54,233.82 535.67,235.28 547.97,270.91 
		585.53,333.17 	"/>
	<polygon class="st1" points="582.96,235.32 642.6,209.97 638.33,208.96 582.53,232.79 	"/>
	<polygon class="st1" points="535.67,235.28 582.96,235.32 582.53,232.79 535.2,232.52 	"/>
	<polygon class="st1" points="602.31,210.23 640.03,211.07 638.33,208.96 599.67,207.63 	"/>
	<polygon class="st1" points="570.59,304.77 606.83,299.39 650.17,290.36 649.75,287.83 605.7,296.96 569.26,302.37 	"/>
	<polygon class="st1" points="540,247.83 532.15,289.98 544.83,320.61 543.43,323.88 530.07,290.53 538.53,243.57 	"/>
	<polygon class="st1" points="669.17,275.76 686.66,265.06 709.81,263.6 704.13,292.71 681.99,311.55 661.15,319.59 645.05,288.8 
		649.75,287.83 	"/>
	<polygon class="st1" points="691.49,303.46 719.43,314.7 718.92,317.37 689.31,305.32 	"/>
	<polygon class="st1" points="704.91,288.68 724.02,307.62 722.57,310.47 704.13,292.71 	"/>
	<polygon class="st1" points="581.82,349.74 609.6,365.64 609.02,362.2 584.14,347.75 	"/>
	<polygon class="st1" points="550.15,358.45 588.29,336.77 612.59,329.15 611.97,325.48 589.77,332.54 606.83,299.39 602.83,299.98 
		585.53,333.17 549.52,354.78 	"/>
	<polygon class="st1" points="543.83,344.78 551.18,338.28 550.79,335.98 542.27,342.66 	"/>
	<polygon class="st1" points="691.48,250.09 703.63,263.99 686.66,265.06 649.75,287.83 645.25,266.59 652.48,255.39 	"/>
	<polyline class="st1" points="569.26,302.37 649.75,287.83 661.15,319.59 588.29,336.77 567.14,302.69 569.26,302.37 	"/>
	<polyline class="st1" points="582.96,235.32 598.52,266.29 618.1,294.39 567.14,302.69 547.97,270.91 535.67,235.28 539.54,233.82 
		582.53,232.79 582.96,235.32 	"/>
	<polyline class="st1" points="591.42,231.73 586.78,242.93 584.95,240.09 587.68,232.91 591.42,231.73 	"/>
	<polyline class="st1" points="544.34,260.37 536.72,265.42 532.15,289.98 533.69,293.72 544.39,293.93 548.22,296.37 
		544.83,320.61 541.79,325.59 545.34,332.28 550.79,335.98 551.01,343.72 547.29,347.39 549.52,354.78 585.53,333.17 544.34,260.37 
			"/>
	<path class="st1" d="M555.96,355.15"/>
	<polyline class="st1" points="555.96,355.15 588.29,336.77 612.59,329.15 595.3,349.31 590.76,346.77 577.64,351.93 555.96,355.15 
			"/>
	<polyline class="st1" points="695.91,299.7 706.5,306.73 710.38,298.73 702.03,292.61 695.91,299.7 	"/>
	<g class="st1">
		<path d="M635.41,257.22c-5.67-2.14-12.49,1.89-15.23,8.99c-2.74,7.1-0.36,14.6,5.31,16.73c5.67,2.14,12.49-1.89,15.23-8.99
			C643.45,266.85,641.08,259.35,635.41,257.22z M626.6,280.05c-4.29-1.62-6.03-7.44-3.88-13.01s7.36-8.77,11.65-7.15
			c4.29,1.62,6.03,7.44,3.88,13.01C636.11,278.47,630.89,281.67,626.6,280.05z"/>
	</g>
	<polygon class="st1" points="632.22,258.39 633.47,269.32 649.29,277.3 650.4,283.85 631.92,274.46 624.47,280.03 622.4,276.97 
		630.03,271.09 628.62,258.93 	"/>
	
		<ellipse transform="matrix(0.9962 -0.087 0.087 0.9962 -25.3226 56.5516)" class="st1" cx="636.12" cy="318.79" rx="26.51" ry="28.94"/>
	
		<ellipse transform="matrix(0.9705 -0.241 0.241 0.9705 -71.3191 137.4943)" class="st1" cx="526.43" cy="360.31" rx="24.88" ry="27.19"/>
	
		<ellipse transform="matrix(0.9409 -0.3388 0.3388 0.9409 -63.6935 266.349)" class="st1" cx="731.02" cy="315.6" rx="25.4" ry="28.41"/>
	
		<ellipse transform="matrix(0.9466 -0.3224 0.3224 0.9466 -81.3713 218.6138)" class="st1" cx="619.29" cy="354.96" rx="23.82" ry="27.24"/>
	<g class="st1">
		<path class="st2" d="M632,303.64c-6.82-0.09-12.36,6.19-12.39,14.03s5.48,14.27,12.29,14.36c6.82,0.09,12.36-6.19,12.39-14.03
			S638.82,303.74,632,303.64z M641.59,317.96c-0.02,6.08-4.32,10.94-9.6,10.87c-5.28-0.07-9.55-5.06-9.53-11.13
			c0.02-6.08,4.32-10.94,9.6-10.87C637.34,306.9,641.61,311.89,641.59,317.96z"/>
	</g>
	<g class="st1">
		<path class="st2" d="M519.68,346.3c-6.77,0.63-11.55,7.51-10.67,15.35c0.88,7.85,7.07,13.7,13.84,13.07s11.55-7.51,10.67-15.35
			C532.65,351.52,526.45,345.67,519.68,346.3z M530.83,359.61c0.68,6.08-3.02,11.41-8.27,11.9s-10.05-4.04-10.73-10.13
			c-0.68-6.08,3.02-11.41,8.27-11.9C525.35,349,530.15,353.53,530.83,359.61z"/>
	</g>
	<g class="st1">
		<path d="M594.64,239.18L594.64,239.18c-1.28-0.13-2.61-0.11-3.95,0.09c-7.72,1.15-13.04,7.68-11.86,14.6
			c0.06,0.35,0.14,0.69,0.22,1.02l-0.05-0.01l2.61,11.41l22.44,2.18c0,0,3.55,0.42,5.26-0.07c0.15,0,0.31-0.01,0.46-0.03
			c1.97-0.29,3.24-2.5,2.83-4.94c0,0-0.39-3.91-1.36-4.31c-0.78-0.33-1.94-0.08-3.05-0.18l-1.15-7.62c0.21-0.92,0.9-3.08,2.74-3.49
			c2.35-0.53,6.88-1.02,6.88-1.02l-0.22-1.29C616.44,245.51,597.17,238.78,594.64,239.18z"/>
		<path d="M583.35,266.46c0,0,0.2,3.64,0.78,4.62c0.58,0.97-3.48,1.93-4.95,4.62s-2.5,4.49-2.07,7.02s4.16,8.22,4.16,8.22
			s8.71,8.01,9.13,8.3c0.41,0.29,15.23-2.26,15.23-2.26s10.52-17.33,10.82-18.44s-4.8-6.48-4.8-6.48l-2.89-0.51l-0.96-3.51
			L583.35,266.46z"/>
		<path d="M626.38,264.5c0,0-1.57-1.42-3.83-0.9c-2.27,0.51-4.11,1.02-5.64,2.31s-5.26,6.14-5.26,6.14l4.8,6.48
			c0,0,1.22,0.1,2.28-0.76s3.69-2.79,3.86-3.58c0.17-0.79,0.06-3.2,0-3.57s1.48-0.89,1.32-1.81c-0.16-0.92-0.47-1.7-0.59-2.03
			c-0.12-0.34,0.7-0.49,1.34-0.63s1.37,0.25,1.71-0.25S627.38,265.12,626.38,264.5z"/>
		<path d="M649.99,282.85l-20.31-9.88c0,0-0.26-1.55-3.47,1.93s-4.92,5.56-4.92,5.56l-5.05-3.37l-13.35,20.36l49.61-8.25
			L649.99,282.85z"/>
	</g>
	<path class="st3" d="M607.06,251.59c0,0-0.66-0.73-0.79-2.12c-0.05-0.49-1.71-0.45-3.8-0.02s-5.31,1.77-6.47,2.75s-1,2.1-0.95,2.6
		c0.09,0.87,0.42,2.12,2.01,2.23c1.59,0.12,6.45-0.54,8-0.83c1.57-0.3,2.43-0.02,2.57-0.97c0.05-0.32,0.03-2.02-0.14-2.48
		C607.29,252.2,607.06,251.59,607.06,251.59z"/>
</g>
<g id="Layer_5" class="st0">
	<g class="st1">
		<path class="st5" d="M227.63,282.96v-79.48h3.59l33.75,37.67l33.72-37.67h7.92v79.48h-15.84v-48.6l-27.72,31l-27.5-31v48.6H227.63
			z"/>
		<path class="st5" d="M356.72,238.83h-7.85c-0.62-5.91-3.26-8.86-7.92-8.86c-2.17,0-4.03,0.87-5.59,2.61
			c-1.55,1.74-2.33,3.82-2.33,6.25v26.49c0,2.37,0.77,4.43,2.31,6.17c1.54,1.74,3.41,2.61,5.61,2.61c4.66,0,7.3-2.92,7.92-8.78h7.85
			c-0.64,11.76-5.9,17.63-15.77,17.63h-7.92c-4.32,0-8.03-1.73-11.12-5.19c-3.1-3.46-4.65-7.61-4.65-12.44v-26.49
			c0-4.88,1.55-9.06,4.66-12.52c3.11-3.46,6.81-5.19,11.1-5.19h7.92C350.87,221.11,356.13,227.02,356.72,238.83z"/>
		<path class="st5" d="M391.13,238.83h23.69v26.49c0,5.85-1.68,10.25-5.05,13.2s-6.94,4.43-10.72,4.43h-15.84
			c-4.32,0-8.03-1.73-11.12-5.19c-3.1-3.46-4.65-7.61-4.65-12.44v-44.21c0-4.75,1.52-8.87,4.57-12.38c3.05-3.5,6.78-5.26,11.2-5.26
			h15.84c9.92,0,15.18,5.88,15.77,17.63h-7.92c-0.62-5.85-3.23-8.78-7.85-8.78h-7.92c-2.17,0-4.03,0.86-5.59,2.59
			c-1.55,1.73-2.33,3.79-2.33,6.19v44.21c0,2.43,0.78,4.5,2.33,6.21s3.42,2.57,5.59,2.57c5.03-0.28,7.67-3.2,7.92-8.78v-17.72h-7.92
			V238.83z"/>
		<path class="st5" d="M425.47,212.34v-8.86h15.77v8.86H425.47z M425.47,282.96v-61.84h15.77v61.84H425.47z"/>
		<path class="st5" d="M451.96,282.96v-79.48h15.77v79.48H451.96z"/>
		<path class="st5" d="M478.45,282.96v-79.48h15.77v79.48H478.45z"/>
	</g>
	<g class="st1">
		<path class="st5" d="M228.56,386.39v-79.48h35.33c4.83,0,8.97,1.74,12.43,5.22s5.19,7.62,5.19,12.42v4.47
			c0,5.16-1.47,9.22-4.41,12.17s-7.34,4.77-13.22,5.46c5.87,0,10.28,1.77,13.22,5.32c2.94,3.55,4.41,7.65,4.41,12.31v4.47
			c0,4.77-1.74,8.91-5.23,12.4c-3.49,3.49-7.62,5.24-12.39,5.24H228.56z M246.19,342.27h8.85c2.4,0,4.47-0.88,6.23-2.63
			c1.75-1.75,2.63-3.83,2.63-6.23v-8.86c0-2.4-0.88-4.46-2.63-6.19s-3.83-2.59-6.23-2.59h-8.85L246.19,342.27L246.19,342.27z
			 M246.19,377.53h8.85c2.4,0,4.47-0.87,6.23-2.61c1.75-1.74,2.63-3.79,2.63-6.17v-8.86c0-5.91-2.95-8.86-8.85-8.86h-8.85v26.5
			H246.19z"/>
		<path class="st5" d="M303.48,386.39v-61.84c0-4.83,1.73-8.98,5.19-12.44s7.6-5.2,12.43-5.2h17.71c4.83,0,8.97,1.74,12.43,5.22
			s5.19,7.62,5.19,12.42v61.84h-17.62v-35.35H321.1v35.35H303.48z M321.11,342.27h17.71v-17.72c0-2.4-0.88-4.46-2.63-6.19
			s-3.83-2.59-6.23-2.59c-2.43,0-4.51,0.86-6.25,2.59c-1.74,1.72-2.61,3.79-2.61,6.19v17.72H321.11z"/>
		<path class="st5" d="M422.5,306.92v61.84c0,5.85-1.48,10.25-4.43,13.21c-2.95,2.95-7.35,4.43-13.2,4.43h-17.71
			c-5.85,0-10.25-1.48-13.2-4.43c-2.95-2.95-4.43-7.35-4.43-13.21v-17.72h17.62v17.72c0,2.4,0.88,4.46,2.63,6.19
			c1.75,1.72,3.83,2.59,6.23,2.59c2.43,0,4.51-0.86,6.25-2.59c1.74-1.72,2.61-3.79,2.61-6.19v-61.84H422.5z"/>
		<path class="st5" d="M444.55,386.39v-61.84c0-4.83,1.73-8.98,5.19-12.44s7.61-5.2,12.43-5.2h17.71c4.83,0,8.97,1.74,12.43,5.22
			s5.19,7.62,5.19,12.42v61.84h-17.62v-35.35h-17.71v35.35H444.55z M462.17,342.27h17.71v-17.72c0-2.4-0.88-4.46-2.63-6.19
			c-1.75-1.72-3.83-2.59-6.23-2.59c-2.43,0-4.51,0.86-6.25,2.59s-2.61,3.79-2.61,6.19v17.72H462.17z"/>
	</g>
</g>
<g id="Layer_4" class="st0">
	<polyline class="st6" points="567.45,229.39 583,260.36 602.59,288.46 551.63,296.76 532.46,264.98 520.16,229.35 524.03,227.9 
		567.02,226.87 567.45,229.39 	"/>
	<polygon class="st1" points="584.15,201.71 590.99,201.91 656.26,268.93 651.18,271.45 	"/>
	<polygon class="st1" points="626.34,203.14 662.55,247.21 657.21,247.86 620.59,202.99 	"/>
	<polygon class="st1" points="587.97,205.56 520.75,231.03 519.24,226.87 584.15,201.71 	"/>
	<polygon class="st1" points="576.09,322.99 560.32,297.98 539.48,262.71 525.77,226.87 520.16,229.35 532.46,264.98 570.02,327.25 
			"/>
	<polygon class="st1" points="566.92,230.03 627.09,204.05 619.18,203.03 562.93,226.87 	"/>
	<polygon class="st1" points="520.75,231.03 568.27,231.03 566.36,226.87 519.24,226.87 	"/>
	<polygon class="st1" points="587.97,205.56 628.96,206.33 625.75,202.42 584.15,201.71 	"/>
	<polygon class="st1" points="555.08,298.84 591.32,293.46 634.66,284.43 634.23,281.9 590.19,291.04 553.74,296.45 	"/>
	<polygon class="st1" points="524.79,242.76 517.74,283.81 529.83,313.47 527.92,317.95 514.55,284.6 523.02,237.64 	"/>
	<polygon class="st1" points="653.66,269.83 671.15,259.14 694.3,257.67 688.62,286.78 666.47,305.62 645.64,313.66 629.53,282.88 
		634.23,281.9 	"/>
	<polygon class="st1" points="676.39,297.19 703.92,308.78 703.4,313.44 672.42,300.56 	"/>
	<polygon class="st1" points="689.53,282.12 708.72,301.28 707.06,304.54 688.62,286.78 	"/>
	<polygon class="st1" points="566.01,344.22 594.17,360.16 593.32,355.18 568.77,340.59 	"/>
	<polygon class="st1" points="534.63,352.53 572.78,330.84 597.08,323.23 596.46,319.55 574.26,326.62 591.32,293.46 587.32,294.05 
		570.02,327.25 534.01,348.85 	"/>
	<polygon class="st1" points="529.29,341.24 535.95,334.02 534.98,328.3 526.76,336.73 	"/>
	<polygon class="st1" points="675.97,244.16 688.12,258.06 671.15,259.14 634.23,281.9 629.73,260.66 636.96,249.46 	"/>
	<polyline class="st1" points="553.74,296.45 634.23,281.9 645.64,313.66 572.78,330.84 551.63,296.76 553.74,296.45 	"/>
	<polyline class="st1" points="576.31,225.98 571.27,238 569.58,233.82 572.18,227.62 	"/>
	<polyline class="st1" points="528.82,254.44 521.21,259.5 516.63,284.06 518.18,287.79 528.88,288.01 532.71,290.44 529.31,314.68 
		526.28,319.67 529.82,326.36 535.27,330.05 535.5,337.79 531.78,341.47 534.01,348.85 570.02,327.25 528.82,254.44 	"/>
	<path class="st1" d="M540.45,349.22"/>
	<polyline class="st1" points="540.45,349.22 572.78,330.84 597.08,323.23 579.79,343.38 575.24,340.84 562.13,346 540.45,349.22 	
		"/>
	<polyline class="st1" points="680.4,293.78 690.99,300.8 694.87,292.8 686.51,286.68 680.4,293.78 	"/>
	<g class="st1">
		<path d="M619.9,251.29c-5.67-2.14-12.49,1.89-15.23,8.99s-0.36,14.6,5.31,16.73c5.67,2.14,12.49-1.89,15.23-8.99
			C627.94,260.92,625.57,253.43,619.9,251.29z M611.09,274.13c-4.29-1.62-6.03-7.44-3.88-13.01s7.36-8.77,11.65-7.15
			c4.29,1.62,6.03,7.44,3.88,13.01C620.6,272.54,615.38,275.74,611.09,274.13z"/>
	</g>
	<polygon class="st1" points="616.71,252.47 617.95,263.4 633.78,271.37 634.89,277.92 616.41,268.53 608.96,274.1 606.89,271.05 
		614.51,265.16 613.11,253 	"/>
	
		<ellipse transform="matrix(0.9705 -0.241 0.241 0.9705 -70.3479 133.5791)" class="st1" cx="510.91" cy="354.38" rx="24.88" ry="27.19"/>
	
		<ellipse transform="matrix(0.9466 -0.3224 0.3224 0.9466 -80.2902 213.2978)" class="st1" cx="603.78" cy="349.04" rx="23.82" ry="27.24"/>
	
		<ellipse transform="matrix(0.9409 -0.3388 0.3388 0.9409 -62.6031 260.74)" class="st1" cx="715.5" cy="309.67" rx="25.4" ry="28.41"/>
	
		<ellipse transform="matrix(0.9962 -0.087 0.087 0.9962 -24.8655 55.1797)" class="st1" cx="620.61" cy="312.86" rx="26.51" ry="28.94"/>
	<g class="st1">
		<path class="st2" d="M616.49,297.72c-6.82-0.09-12.36,6.19-12.39,14.03s5.48,14.27,12.29,14.36c6.82,0.09,12.36-6.19,12.39-14.03
			S623.31,297.81,616.49,297.72z M626.07,312.03c-0.02,6.08-4.32,10.94-9.6,10.87c-5.28-0.07-9.55-5.06-9.53-11.13
			c0.02-6.08,4.32-10.94,9.6-10.87C621.83,300.97,626.09,305.96,626.07,312.03z"/>
	</g>
	<g class="st1">
		<path class="st2" d="M504.17,340.38c-6.77,0.63-11.55,7.51-10.67,15.35c0.88,7.85,7.07,13.7,13.84,13.07s11.55-7.51,10.67-15.35
			C517.14,345.6,510.94,339.75,504.17,340.38z M515.32,353.68c0.68,6.08-3.02,11.41-8.27,11.9c-5.25,0.49-10.05-4.04-10.73-10.13
			c-0.68-6.08,3.02-11.41,8.27-11.9C509.84,343.07,514.64,347.6,515.32,353.68z"/>
	</g>
	<g class="st1">
		<path d="M579.12,233.26L579.12,233.26c-1.28-0.13-2.61-0.11-3.95,0.09c-7.72,1.15-13.04,7.68-11.86,14.6
			c0.06,0.35,0.14,0.69,0.22,1.02l-0.05-0.01l2.61,11.41l22.44,2.18c0,0,3.55,0.42,5.26-0.07c0.15,0,0.31-0.01,0.46-0.03
			c1.97-0.29,3.24-2.5,2.83-4.94c0,0-0.39-3.91-1.36-4.31c-0.78-0.33-1.94-0.08-3.05-0.18l-1.15-7.62c0.21-0.92,0.9-3.08,2.74-3.49
			c2.35-0.53,6.88-1.02,6.88-1.02l-0.22-1.29C600.93,239.59,581.66,232.85,579.12,233.26z"/>
		<path d="M567.84,260.53c0,0,0.2,3.64,0.78,4.62c0.58,0.97-3.48,1.93-4.95,4.62c-1.47,2.69-2.5,4.49-2.07,7.02s4.16,8.22,4.16,8.22
			s8.71,8.01,9.13,8.3c0.41,0.29,15.23-2.26,15.23-2.26s10.52-17.33,10.82-18.44s-4.8-6.48-4.8-6.48l-2.89-0.51l-0.96-3.51
			L567.84,260.53z"/>
		<path d="M610.87,258.58c0,0-1.57-1.42-3.83-0.9c-2.27,0.51-4.11,1.02-5.64,2.31s-5.26,6.14-5.26,6.14l4.8,6.48
			c0,0,1.22,0.1,2.28-0.76c1.06-0.86,3.69-2.79,3.86-3.58s0.06-3.2,0-3.57s1.48-0.89,1.32-1.81c-0.16-0.92-0.47-1.7-0.59-2.03
			s0.7-0.49,1.34-0.63s1.37,0.25,1.71-0.25C611.2,259.47,611.87,259.19,610.87,258.58z"/>
		<path d="M634.48,276.92l-20.31-9.88c0,0-0.26-1.55-3.47,1.93c-3.21,3.48-4.92,5.56-4.92,5.56l-5.05-3.37l-13.35,20.36l49.61-8.25
			L634.48,276.92z"/>
	</g>
	<path class="st3" d="M591.55,245.66c0,0-0.66-0.73-0.79-2.12c-0.05-0.49-1.71-0.45-3.8-0.02c-2.1,0.43-5.31,1.77-6.47,2.75
		s-1,2.1-0.95,2.6c0.09,0.87,0.42,2.12,2.01,2.23c1.59,0.12,6.45-0.54,8-0.83c1.57-0.3,2.43-0.02,2.57-0.97
		c0.05-0.32,0.03-2.02-0.14-2.48C591.78,246.27,591.55,245.66,591.55,245.66z"/>
	<polygon class="st1" points="567.45,229.39 570.5,235.47 566.27,238.95 560.91,229.39 	"/>
</g>
<g id="Layer_6">
	<path class="st4" d="M594.87,233.23l15.52,30.89c0.03,0.05,0.05,0.1,0.09,0.15l18.46,26.49c0.5,0.72,0.08,1.71-0.78,1.85
		l-48.31,7.87c-0.48,0.08-0.95-0.14-1.2-0.56l-18.69-30.99c-0.04-0.07-0.08-0.15-0.11-0.23l-11.89-34.42
		c-0.21-0.61,0.1-1.27,0.7-1.5l2.6-0.98c0.12-0.05,0.26-0.07,0.39-0.08l41.77-1c0.59-0.01,1.1,0.41,1.2,0.99L594.87,233.23"/>
	<path d="M583.27,302.56l35.43-5.26c0.02,0,0.05-0.01,0.07-0.01l42.19-8.79c0.62-0.13,1.03-0.73,0.93-1.36l-0.03-0.19
		c-0.11-0.66-0.75-1.1-1.41-0.96l-42.81,8.88c-0.02,0-0.04,0.01-0.07,0.01l-34.71,5.15c-0.82,0.12-1.26,1.03-0.86,1.75l0.12,0.21
		C582.35,302.4,582.81,302.63,583.27,302.56z"/>
	<path d="M563.52,355.52l36.56-20.78c0.07-0.04,0.15-0.08,0.23-0.1l23.2-7.27c0.57-0.18,0.91-0.74,0.81-1.33l-0.22-1.31
		c-0.12-0.71-0.84-1.15-1.53-0.93l-18.19,5.79c-1,0.32-1.9-0.73-1.41-1.67l14.7-28.57c0.44-0.86-0.27-1.86-1.23-1.71l-1.12,0.17
		c-0.38,0.06-0.7,0.29-0.88,0.62l-16.87,32.36c-0.1,0.19-0.25,0.36-0.44,0.47l-35.03,21.01c-0.42,0.25-0.64,0.73-0.56,1.21l0.2,1.21
		C561.91,355.5,562.81,355.93,563.52,355.52z"/>
	<path d="M567.87,353.05"/>
	<path d="M661.91,279.43l-0.62-3.64c-0.06-0.37-0.3-0.69-0.63-0.86l-6.88-3.47c-0.51-0.26-0.75-0.84-0.6-1.39
		c1.74-6.53-0.67-12.99-5.87-14.95c-5.67-2.14-12.49,1.89-15.23,8.99s-0.36,14.6,5.31,16.73c4.27,1.61,9.19-0.29,12.53-4.36
		c0.35-0.43,0.97-0.54,1.47-0.29l8.82,4.48C661.08,281.13,662.07,280.39,661.91,279.43z M649.16,269.14L649.16,269.14
		c-2.37-1.19-3.97-3.5-4.27-6.13l-0.43-3.78c-0.11-1.01,0.87-1.78,1.82-1.42l0,0c3.65,1.38,5.45,5.79,4.58,10.51
		C650.72,269.08,649.86,269.49,649.16,269.14z M634.63,264.95c0.91-2.35,2.36-4.27,4.06-5.59c0.86-0.66,2.11-0.16,2.23,0.92
		l0.36,3.1c0.4,3.48-1.05,6.92-3.82,9.07l-1.43,1.1c-0.66,0.51-1.63,0.19-1.87-0.61C633.45,270.58,633.55,267.74,634.63,264.95z
		 M638.51,277.96c-0.46-0.17-0.88-0.4-1.27-0.66l6.01-4.49c0.36-0.27,0.84-0.31,1.25-0.11l2.15,1.09c0.72,0.36,0.89,1.34,0.3,1.9
		C644.47,278.03,641.29,279.01,638.51,277.96z"/>
	<path d="M735.55,304.53l-18.14-18.26c-0.11-0.38-0.21-0.69-0.32-1.06l4.03-20.62c0.26-1.34-0.61-2.64-1.96-2.9l0,0
		c-0.1-0.02-0.19-0.05-0.28-0.09l-5.87-2.74c-0.13-0.1-0.26-0.19-0.39-0.29l-8.17-9.35c-0.66-0.76-1.66-1.13-2.66-1l-12.26,1.67
		c-0.5,0.07-1.35-1.01-1.48-1.17l-31.67-38.54l-2.33-2.84c-0.56-0.68-1.39-1.08-2.27-1.09l-38.64-0.67
		c-1.04-0.02-2.06,0.17-3.03,0.54l-60.9,23.6c-1.42,0.55-2.14,2.13-1.62,3.56l0,0c0.01,0.02,0.02,0.04,0.03,0.06
		s0.01,0.03,0.01,0.05l0.06,0.16c0.13,0.36,0.63,1.8,0.79,2.25l2.55,7.39c0.02,0.19,0.03,0.38,0.05,0.57l-6.85,43.05
		c0.12,1.08,0.24,2.1,0.36,3.17l11.5,28.69c0.14,0.35,0.11,0.74-0.09,1.06l-0.82,1.35c-0.92,1.51-0.97,3.38-0.15,4.94l1.4,2.64
		c0.76,0.85,1.49,1.66,2.26,2.52l0,0c1.46,0.99,1.67,3.06,0.44,4.32l-4.33,4.44c-0.37,0.38-0.44,0.95-0.18,1.41l1.3,2.31
		c0.39,0.7,1.36,0.81,1.9,0.22l3.13-3.4c0.7-0.76,1.96-0.26,1.96,0.77c0.01,0.24-0.09,0.48-0.26,0.65l-2.94,2.9
		c-0.11,0.43-0.19,0.76-0.3,1.19l1.79,5.91c0.14,0.48,0.57,0.81,1.07,0.84l5.49,0.32c0.08,0,0.16-0.01,0.24-0.01l21.43-3.18
		c0.09-0.02,0.17-0.05,0.26-0.07l3.49-1.37c0.33-0.13,0.71-0.1,1.02,0.07l25.23,14.28c0.87,0.49,1.92-0.24,1.75-1.23l-0.34-1.99
		c-0.2-0.29-0.37-0.53-0.56-0.82l-18.24-10.84c-1.22-0.73-1.08-2.54,0.25-3.07l0,0c0.25-0.1,0.52-0.08,0.75,0.05l5.33,3.31
		c0.37,0.2,1.28-0.52,1.55-0.84l12.38-17.72c0.12-0.14,0.29-0.24,0.47-0.28l45.93-10.83c1.07-0.25,1.93-0.91,2.47-1.76
		c0.35-0.55,1.12-0.59,1.48-0.07c0.31,0.45,0.88,0.62,1.39,0.43l18.13-7c1.06-0.63,2.1-1.25,3.17-1.88l1.73-1.47
		c1.72-1.46,4.11-1.84,6.19-0.97l26.13,10.87c0.73,0.3,1.55-0.18,1.63-0.96l0.24-2.22c0.06-0.52-0.23-1.02-0.72-1.22l-22.22-9.35
		c-2.06-0.87-2.48-3.6-0.78-5.05l0.3-0.25l0,0l11.04,7.32c0.72,0.48,1.7,0.05,1.83-0.81l0.92-6.07c0.34-0.7,1.26-0.86,1.82-0.32
		l9.91,9.54c0.57,0.55,1.52,0.39,1.88-0.32l0.56-1.09C735.99,305.41,735.9,304.88,735.55,304.53z M624.97,209.57l9.03,0.17
		c1.28,0.02,1.62,1.78,0.44,2.28l-6.28,2.66c-0.45,0.19-0.97,0.09-1.31-0.26l-2.76-2.83C623.36,210.82,623.91,209.55,624.97,209.57z
		 M660.32,259.59l-2.27,3.52c-0.57,0.89-0.77,1.96-0.55,3l2.45,11.57c0.2,0.96-0.79,1.74-1.68,1.31l-16.68-8.12
		c0,0-0.26-1.55-3.47,1.93c-1.6,1.74-2.83,3.12-3.66,4.08c-0.73,0.84-1.97,1-2.9,0.39l-1.68-1.12c0.25-0.11,0.51-0.26,0.76-0.46
		c1.06-0.86,3.69-2.79,3.86-3.58s0.06-3.2,0-3.57s1.48-0.89,1.32-1.81s-0.47-1.7-0.59-2.03c-0.12-0.34,0.7-0.49,1.34-0.63
		s1.37,0.25,1.71-0.25s1.01-0.78,0-1.4c0,0-1.57-1.42-3.83-0.9c-2.27,0.51-4.11,1.02-5.64,2.31c-1.21,1.02-3.8,4.27-4.83,5.58
		c-0.27,0.34-0.71,0.51-1.14,0.44l-1.45-0.26c-0.45-0.08-0.82-0.41-0.94-0.86l-0.6-2.21c0.5-0.03,0.97-0.1,1.35-0.21
		c0.15,0,0.31-0.01,0.46-0.03c1.97-0.29,3.24-2.5,2.83-4.94c0,0-0.39-3.91-1.36-4.31c-0.54-0.22-1.25-0.18-2-0.16
		c-0.6,0.01-1.11-0.42-1.2-1.01l-0.41-2.73l0,0c-0.15,0.95-1,0.67-2.57,0.97c-1.55,0.29-6.41,0.95-8,0.83s-1.91-1.37-2.01-2.23
		c-0.05-0.49-0.21-1.62,0.95-2.6c1.16-0.98,4.37-2.32,6.47-2.75s3.76-0.47,3.8,0.02c0.13,1.39,0.79,2.12,0.79,2.12
		s0.01,0.04,0.04,0.1c-0.03-0.29-0.02-0.58,0.06-0.86c0.31-1.04,1.05-2.65,2.61-3c2.35-0.53,6.88-1.02,6.88-1.02l0,0
		c-0.14-0.8-0.69-1.46-1.46-1.72c-4.3-1.48-18.42-6.25-20.56-5.9l0,0c-1.28-0.13-2.61-0.11-3.95,0.09l0,0
		c-0.91,0.14-1.63-0.78-1.27-1.63l1.94-4.62c0.3-0.72,0.87-1.29,1.58-1.59l20.17-8.71c0.45-0.2,0.98-0.09,1.32,0.27l33.63,35
		C660.92,256.89,661.07,258.42,660.32,259.59z M596.19,233.06l0.64-0.28c0.98-0.42,1.97,0.56,1.56,1.55l-0.35,0.84
		c-0.39,0.93-1.7,0.98-2.15,0.07l-0.29-0.57C595.29,234.08,595.56,233.33,596.19,233.06z M565.2,228.41l48.25-18.28
		c1.12-0.43,2.39-0.14,3.23,0.73l4.74,4.94c0.58,0.6,0.37,1.59-0.39,1.91l-29.94,12.68c-0.49,0.21-1.02,0.32-1.56,0.32h-23.91
		C564.3,230.7,563.97,228.87,565.2,228.41z M553.43,256.92c0.21-1.21,1.89-1.34,2.29-0.18c0.14,0.42,0.23,0.69,0.23,0.69
		c0.17,0.49-0.01,1.04-0.45,1.32c0,0-2.67,1.66-2.5,0.68L553.43,256.92z M557.84,310.64c-0.12,0.88-4.75-10.66-6.93-16.17
		c-0.53-1.34,0.49-2.78,1.92-2.73c1.57,0.05,3.15,0.1,3.15,0.1c0.21,0,0.41,0.07,0.59,0.18l1.39,0.88c1.32,0.84,2.03,2.38,1.81,3.93
		L557.84,310.64z M589.71,298.74c-2.06,0.37-4.13-0.58-5.19-2.38l-17.56-29.73c-0.03-0.06-0.06-0.12-0.09-0.18l-10.53-27.52
		c-0.75-1.96,0.7-4.07,2.8-4.07h28.35c1.09,0,2.09,0.59,2.62,1.53l2.3,4.11c0.55,0.97,0.57,2.18-0.02,3.13
		c-1.5,2.4-2.15,5.24-1.66,8.14c0.06,0.35,0.14,0.69,0.22,1.02l-0.05-0.01l1.74,7.6c0.36,1.57,1.04,3.12,2.29,4.15
		c0.23,0.19,0.38,0.46,0.4,0.77c0.1,1.15,0.32,3.03,0.71,3.68c0.58,0.97-3.48,1.93-4.95,4.62c-1.47,2.69-2.5,4.49-2.07,7.02
		c0.37,2.18,3.2,6.71,3.97,7.91c0.13,0.2,0.27,0.37,0.45,0.54c0.77,0.7,3.13,2.87,5.22,4.78c1.22,1.12,0.64,3.15-0.99,3.44
		L589.71,298.74z M681.69,250.94l-16.37,2.22c-0.2,0.03-33.6-33.76-33.6-33.76c-0.56-0.57-0.37-1.53,0.37-1.85l17.1-7.39
		c0.22-0.09,0.45-0.14,0.69-0.14c0.49,0.01,0.95,0.23,1.26,0.61l31.32,38.36C683.03,249.73,682.6,250.82,681.69,250.94z
		 M715.12,291.39l0.6-0.51c0.1-0.09,0.19-0.19,0.25-0.31c0.26,0.25,0.45,0.43,0.5,0.48l5.81,5.59L715.12,291.39z"/>
	<ellipse transform="matrix(0.9705 -0.241 0.241 0.9705 -70.4627 140.3001)" cx="538.33" cy="358.21" rx="24.88" ry="27.19"/>
	<ellipse transform="matrix(0.9466 -0.3224 0.3224 0.9466 -80.0611 222.3424)" cx="631.2" cy="352.87" rx="23.82" ry="27.24"/>
	<ellipse transform="matrix(0.9409 -0.3388 0.3388 0.9409 -62.2792 270.2562)" cx="742.91" cy="313.5" rx="25.4" ry="28.41"/>
	<ellipse transform="matrix(0.9962 -0.087 0.087 0.9962 -25.0955 57.5799)" cx="648.03" cy="316.69" rx="26.51" ry="28.94"/>
	<g>
		<path class="st2" d="M643.91,301.55c-6.82-0.09-12.36,6.19-12.39,14.03s5.48,14.27,12.29,14.36c6.82,0.09,12.36-6.19,12.39-14.03
			S650.73,301.64,643.91,301.55z M653.49,315.87c-0.02,6.08-4.32,10.94-9.6,10.87c-5.28-0.07-9.55-5.06-9.53-11.13
			c0.02-6.08,4.32-10.94,9.6-10.87C649.25,304.81,653.51,309.79,653.49,315.87z"/>
	</g>
	<g>
		<path class="st2" d="M531.59,344.21c-6.77,0.63-11.55,7.51-10.67,15.35c0.88,7.85,7.07,13.7,13.84,13.07s11.55-7.51,10.67-15.35
			C544.56,349.43,538.36,343.58,531.59,344.21z M542.74,357.52c0.68,6.08-3.02,11.41-8.27,11.9s-10.05-4.04-10.73-10.13
			c-0.68-6.08,3.02-11.41,8.27-11.9S542.06,351.43,542.74,357.52z"/>
	</g>
	<path class="st2" d="M619.53,253.12c0.05-0.32,0.03-2.02-0.14-2.48c-0.15-0.41-0.32-0.86-0.39-1.05c0,0.03,0,0.06,0,0.08
		L619.53,253.12z"/>
</g>
<g id="Layer_7" class="st0">
	<g class="st1">
		<g>
			<path class="st5" d="M250.23,277.24l19.66-74.51c0.36-1.37,1.77-2.48,3.14-2.48l0,0c0.71,0,1.3,0.3,1.63,0.83l21.99,34.78
				c0.7,1.1,2.42,1.1,3.7,0l40.3-34.78c0.61-0.53,1.36-0.83,2.07-0.83h4.33c1.37,0,2.19,1.11,1.83,2.48l-19.66,74.51
				c-0.36,1.37-1.77,2.48-3.14,2.48H315.2c-1.37,0-2.19-1.11-1.83-2.48l10.45-39.62c0.6-2.28-1.93-3.35-3.9-1.65l-27.89,24.08
				c-1.28,1.11-3.01,1.1-3.7-0.01l-14.97-24.03c-1.06-1.71-4.17-0.64-4.77,1.65l-10.44,39.58c-0.36,1.37-1.77,2.48-3.14,2.48h-2.96
				C250.68,279.72,249.87,278.61,250.23,277.24z"/>
			<path class="st5" d="M387.6,235.59h-3.02c-1.15,0-1.97-0.79-1.91-1.92c0.26-4.62-1.67-6.94-5.8-6.94c-2.17,0-4.26,0.87-6.28,2.61
				c-2.01,1.74-3.34,3.82-3.98,6.25l-6.99,26.49c-0.63,2.37-0.4,4.43,0.69,6.17c1.08,1.74,2.72,2.61,4.92,2.61
				c4.12,0,7.27-2.29,9.43-6.86c0.53-1.13,1.77-1.92,2.92-1.92h3.01c1.48,0,2.32,1.29,1.74,2.76c-3.9,9.92-10.38,14.88-19.44,14.88
				h-7.92c-4.32,0-7.57-1.73-9.75-5.19s-2.64-7.61-1.36-12.44l6.99-26.49c1.29-4.88,3.94-9.06,7.97-12.52
				c4.02-3.46,8.18-5.19,12.47-5.19h7.92c9.12,0,12.98,4.99,11.58,14.97C390.59,234.31,389.07,235.59,387.6,235.59z"/>
			<path class="st5" d="M427.2,235.59h18.72c1.37,0,2.19,1.11,1.83,2.48l-6.33,24.01c-1.54,5.85-4.39,10.25-8.54,13.2
				s-8.11,4.43-11.88,4.43h-15.84c-4.32,0-7.57-1.73-9.75-5.19s-2.64-7.61-1.36-12.44l11.66-44.21c1.25-4.75,3.86-8.87,7.84-12.38
				c3.97-3.5,8.17-5.26,12.58-5.26h15.84c9.11,0,12.98,4.96,11.6,14.89c-0.2,1.46-1.72,2.75-3.19,2.75h-3.1
				c-1.15,0-1.97-0.79-1.91-1.92c0.25-4.57-1.66-6.85-5.74-6.85h-7.92c-2.17,0-4.26,0.86-6.27,2.59c-2.01,1.73-3.33,3.79-3.96,6.19
				l-11.66,44.21c-0.64,2.43-0.41,4.5,0.69,6.21s2.74,2.57,4.91,2.57c5.11-0.28,8.52-3.2,10.24-8.78l4.02-15.23
				c0.36-1.37-0.46-2.48-1.83-2.48h-2.96c-1.37,0-2.19-1.11-1.83-2.48l1.01-3.81C424.42,236.7,425.83,235.59,427.2,235.59z"/>
			<path class="st5" d="M466.7,206.62l1.03-3.89c0.36-1.37,1.77-2.48,3.14-2.48h10.8c1.37,0,2.19,1.11,1.83,2.48l-1.03,3.89
				c-0.36,1.37-1.77,2.48-3.14,2.48h-10.8C467.15,209.1,466.34,207.99,466.7,206.62z M448.07,277.24l15.01-56.88
				c0.36-1.37,1.77-2.48,3.14-2.48h10.8c1.37,0,2.19,1.11,1.83,2.48l-15.01,56.88c-0.36,1.37-1.77,2.48-3.14,2.48h-10.8
				C448.52,279.72,447.71,278.61,448.07,277.24z"/>
			<path class="st5" d="M474.56,277.24l19.66-74.51c0.36-1.37,1.77-2.48,3.14-2.48h10.8c1.37,0,2.19,1.11,1.83,2.48l-19.66,74.51
				c-0.36,1.37-1.77,2.48-3.14,2.48h-10.8C475.02,279.72,474.2,278.61,474.56,277.24z"/>
			<path class="st5" d="M501.05,277.24l19.66-74.51c0.36-1.37,1.77-2.48,3.14-2.48h10.8c1.37,0,2.19,1.11,1.83,2.48l-19.66,74.51
				c-0.36,1.37-1.77,2.48-3.14,2.48h-10.8C501.51,279.72,500.69,278.61,501.05,277.24z"/>
		</g>
		<g>
			<path class="st5" d="M223.88,380.67l19.66-74.51c0.36-1.37,1.77-2.48,3.14-2.48h32.85c4.83,0,8.51,1.74,11.06,5.22
				c2.54,3.48,3.18,7.62,1.92,12.42l-1.18,4.47c-1.36,5.16-3.9,9.22-7.62,12.17c-1.48,1.18-3.15,2.18-5.01,2.99
				c-2.03,0.89-2.7,3.47-1.17,4.39c1.42,0.85,2.53,1.98,3.33,3.4c2,3.55,2.39,7.65,1.16,12.31l-1.18,4.47
				c-1.26,4.77-4.09,8.91-8.5,12.4s-9,5.24-13.77,5.24H225.7C224.33,383.15,223.51,382.04,223.88,380.67z M253.14,336.55
				c-0.36,1.37,0.46,2.48,1.83,2.48h6.37c2.4,0,4.71-0.88,6.92-2.63c2.21-1.75,3.64-3.83,4.27-6.23l2.34-8.86
				c0.63-2.4,0.3-4.46-0.99-6.19c-1.3-1.72-3.14-2.59-5.54-2.59h-6.37c-1.37,0-2.77,1.11-3.14,2.48L253.14,336.55z M243.84,371.81
				c-0.36,1.37,0.46,2.48,1.83,2.48h6.37c2.4,0,4.7-0.87,6.91-2.61s3.63-3.79,4.25-6.17l4.02-15.23c0.36-1.37-0.46-2.48-1.83-2.48
				h-12.74c-1.37,0-2.77,1.11-3.14,2.48L243.84,371.81z"/>
			<path class="st5" d="M300.62,383.15c-1.37,0-2.19-1.11-1.83-2.48l15.66-59.36c1.27-4.83,4.1-8.98,8.47-12.44s8.98-5.2,13.8-5.2
				h17.71c4.83,0,8.51,1.74,11.06,5.22c2.54,3.48,3.18,7.62,1.92,12.42l-15.66,59.36c-0.36,1.37-1.77,2.48-3.14,2.48h-12.66
				c-1.37,0-2.19-1.11-1.83-2.48l8.02-30.39c0.36-1.37-0.46-2.48-1.83-2.48h-12.74c-1.37,0-2.77,1.11-3.14,2.48l-8.02,30.39
				c-0.36,1.37-1.77,2.48-3.14,2.48H300.62z M329.88,339.03h12.74c1.37,0,2.77-1.11,3.14-2.48l4.02-15.23
				c0.63-2.4,0.3-4.46-0.99-6.19c-1.3-1.72-3.14-2.59-5.54-2.59c-2.43,0-4.74,0.86-6.93,2.59c-2.19,1.72-3.61,3.79-4.24,6.19
				l-4.02,15.23C327.7,337.92,328.51,339.03,329.88,339.03z"/>
			<path class="st5" d="M435.64,303.68c1.37,0,2.19,1.11,1.83,2.48l-15.66,59.36c-1.54,5.85-4.18,10.25-7.91,13.21
				c-3.73,2.95-8.52,4.43-14.37,4.43h-17.71c-5.85,0-9.86-1.48-12.03-4.43c-2.17-2.95-2.49-7.35-0.94-13.21l4.02-15.23
				c0.36-1.37,1.77-2.48,3.14-2.48h12.66c1.37,0,2.19,1.11,1.83,2.48l-4.02,15.23c-0.63,2.4-0.3,4.46,0.99,6.19
				c1.3,1.72,3.14,2.59,5.54,2.59c2.43,0,4.74-0.86,6.93-2.59c2.19-1.72,3.61-3.79,4.24-6.19l15.66-59.36
				c0.36-1.37,1.77-2.48,3.14-2.48L435.64,303.68L435.64,303.68z"/>
			<path class="st5" d="M441.69,383.15c-1.37,0-2.19-1.11-1.83-2.48l15.66-59.36c1.27-4.83,4.1-8.98,8.47-12.44s8.98-5.2,13.8-5.2
				h17.71c4.83,0,8.51,1.74,11.06,5.22c2.54,3.48,3.18,7.62,1.92,12.42l-15.66,59.36c-0.36,1.37-1.77,2.48-3.14,2.48h-12.66
				c-1.37,0-2.19-1.11-1.83-2.48l8.02-30.39c0.36-1.37-0.46-2.48-1.83-2.48h-12.74c-1.37,0-2.77,1.11-3.14,2.48l-8.02,30.39
				c-0.36,1.37-1.77,2.48-3.14,2.48H441.69z M470.95,339.03h12.74c1.37,0,2.77-1.11,3.14-2.48l4.02-15.23
				c0.63-2.4,0.3-4.46-0.99-6.19c-1.3-1.72-3.14-2.59-5.54-2.59c-2.43,0-4.74,0.86-6.93,2.59c-2.19,1.72-3.61,3.79-4.24,6.19
				l-4.02,15.23C468.76,337.92,469.58,339.03,470.95,339.03z"/>
		</g>
	</g>
</g>
<g id="Layer_8" class="st0">
	<g class="st1">
		<g>
			<path class="st5" d="M250.23,277.28l19.66-74.51c0.36-1.37,1.77-2.48,3.14-2.48l0,0c0.71,0,1.3,0.3,1.63,0.83l21.99,34.78
				c0.7,1.1,2.42,1.1,3.7,0l40.3-34.78c0.61-0.53,1.36-0.83,2.07-0.83h4.33c1.37,0,2.19,1.11,1.83,2.48l-19.66,74.51
				c-0.36,1.37-1.77,2.48-3.14,2.48H315.2c-1.37,0-2.19-1.11-1.83-2.48l10.45-39.62c0.6-2.28-1.93-3.35-3.9-1.65l-27.89,24.08
				c-1.28,1.11-3.01,1.1-3.7-0.01l-14.97-24.03c-1.06-1.71-4.17-0.64-4.77,1.65l-10.44,39.58c-0.36,1.37-1.77,2.48-3.14,2.48h-2.96
				C250.68,279.76,249.87,278.65,250.23,277.28z"/>
			<path class="st5" d="M384.58,235.63c-1.15,0-1.97-0.79-1.91-1.92c0.26-4.62-1.67-6.94-5.8-6.94c-2.17,0-4.26,0.87-6.28,2.61
				c-2.01,1.74-3.34,3.82-3.98,6.25l-6.99,26.49c-0.63,2.37-0.4,4.43,0.69,6.17c1.08,1.74,2.72,2.61,4.92,2.61
				c4.12,0,7.27-2.29,9.43-6.86c0.53-1.13,1.77-1.92,2.92-1.92h3.01c1.48,0,2.32,1.29,1.74,2.76c-3.9,9.92-10.38,14.88-19.44,14.88
				h-7.92c-4.32,0-7.57-1.73-9.75-5.19s-2.64-7.61-1.36-12.44l6.99-26.49c1.29-4.88,3.94-9.06,7.97-12.52
				c4.02-3.46,8.18-5.19,12.47-5.19h7.92c9.92,0,13.62,5.91,11.09,17.72L384.58,235.63z"/>
			<path class="st5" d="M427.2,235.63h18.72c1.37,0,2.19,1.11,1.83,2.48l-6.33,24.01c-1.54,5.85-4.39,10.25-8.54,13.2
				s-8.11,4.43-11.88,4.43h-15.84c-4.32,0-7.57-1.73-9.75-5.19s-2.64-7.61-1.36-12.44l11.66-44.21c1.25-4.75,3.86-8.87,7.84-12.38
				c3.97-3.5,8.17-5.26,12.58-5.26h15.84c9.92,0,13.62,5.88,11.11,17.63h-5.8c-1.15,0-1.97-0.79-1.91-1.92
				c0.25-4.57-1.66-6.85-5.74-6.85h-7.92c-2.17,0-4.26,0.86-6.27,2.59c-2.01,1.73-3.33,3.79-3.96,6.19l-11.66,44.21
				c-0.64,2.43-0.41,4.5,0.69,6.21s2.74,2.57,4.91,2.57c5.11-0.28,8.52-3.2,10.24-8.78l4.02-15.23c0.36-1.37-0.46-2.48-1.83-2.48
				h-2.96c-1.37,0-2.19-1.11-1.83-2.48l1.01-3.81C424.42,236.74,425.83,235.63,427.2,235.63z"/>
			<path class="st5" d="M466.7,206.66l1.03-3.89c0.36-1.37,1.77-2.48,3.14-2.48h10.8c1.37,0,2.19,1.11,1.83,2.48l-1.03,3.89
				c-0.36,1.37-1.77,2.48-3.14,2.48h-10.8C467.15,209.14,466.34,208.03,466.7,206.66z M448.07,277.28l15.01-56.88
				c0.36-1.37,1.77-2.48,3.14-2.48h10.8c1.37,0,2.19,1.11,1.83,2.48l-15.01,56.88c-0.36,1.37-1.77,2.48-3.14,2.48h-10.8
				C448.52,279.76,447.71,278.65,448.07,277.28z"/>
			<path class="st5" d="M474.56,277.28l19.66-74.51c0.36-1.37,1.77-2.48,3.14-2.48h10.8c1.37,0,2.19,1.11,1.83,2.48l-19.66,74.51
				c-0.36,1.37-1.77,2.48-3.14,2.48h-10.8C475.02,279.76,474.2,278.65,474.56,277.28z"/>
			<path class="st5" d="M501.05,277.28l19.66-74.51c0.36-1.37,1.77-2.48,3.14-2.48h10.8c1.37,0,2.19,1.11,1.83,2.48l-19.66,74.51
				c-0.36,1.37-1.77,2.48-3.14,2.48h-10.8C501.51,279.76,500.69,278.65,501.05,277.28z"/>
		</g>
		<g>
			<path class="st5" d="M223.88,380.71l19.66-74.51c0.36-1.37,1.77-2.48,3.14-2.48h32.85c4.83,0,8.51,1.74,11.06,5.22
				c2.54,3.48,3.18,7.62,1.92,12.42l-1.18,4.47c-1.36,5.16-3.9,9.22-7.62,12.17c-1.48,1.18-3.15,2.18-5.01,2.99
				c-2.03,0.89-2.7,3.47-1.17,4.39c1.42,0.85,2.53,1.98,3.33,3.4c2,3.55,2.39,7.65,1.16,12.31l-1.18,4.47
				c-1.26,4.77-4.09,8.91-8.5,12.4s-9,5.24-13.77,5.24H225.7C224.33,383.19,223.51,382.08,223.88,380.71z M253.14,336.58
				c-0.36,1.37,0.46,2.48,1.83,2.48h6.37c2.4,0,4.71-0.88,6.92-2.63c2.21-1.75,3.64-3.83,4.27-6.23l2.34-8.86
				c0.63-2.4,0.3-4.46-0.99-6.19c-1.3-1.72-3.14-2.59-5.54-2.59h-6.37c-1.37,0-2.77,1.11-3.14,2.48L253.14,336.58z M243.84,371.85
				c-0.36,1.37,0.46,2.48,1.83,2.48h6.37c2.4,0,4.7-0.87,6.91-2.61s3.63-3.79,4.25-6.17l4.02-15.23c0.36-1.37-0.46-2.48-1.83-2.48
				h-12.74c-1.37,0-2.77,1.11-3.14,2.48L243.84,371.85z"/>
			<path class="st5" d="M300.62,383.19c-1.37,0-2.19-1.11-1.83-2.48l15.66-59.36c1.27-4.83,4.1-8.98,8.47-12.44s8.98-5.2,13.8-5.2
				h17.71c4.83,0,8.51,1.74,11.06,5.22c2.54,3.48,3.18,7.62,1.92,12.42l-15.66,59.36c-0.36,1.37-1.77,2.48-3.14,2.48h-12.66
				c-1.37,0-2.19-1.11-1.83-2.48l8.02-30.39c0.36-1.37-0.46-2.48-1.83-2.48h-12.74c-1.37,0-2.77,1.11-3.14,2.48l-8.02,30.39
				c-0.36,1.37-1.77,2.48-3.14,2.48L300.62,383.19L300.62,383.19z M329.88,339.07h12.74c1.37,0,2.77-1.11,3.14-2.48l4.02-15.23
				c0.63-2.4,0.3-4.46-0.99-6.19c-1.3-1.72-3.14-2.59-5.54-2.59c-2.43,0-4.74,0.86-6.93,2.59c-2.19,1.72-3.61,3.79-4.24,6.19
				l-4.02,15.23C327.7,337.96,328.51,339.07,329.88,339.07z"/>
			<path class="st5" d="M435.64,303.72c1.37,0,2.19,1.11,1.83,2.48l-15.66,59.36c-1.54,5.85-4.18,10.25-7.91,13.21
				c-3.73,2.95-8.52,4.43-14.37,4.43h-17.71c-5.85,0-9.86-1.48-12.03-4.43c-2.17-2.95-2.49-7.35-0.94-13.21l4.02-15.23
				c0.36-1.37,1.77-2.48,3.14-2.48h12.66c1.37,0,2.19,1.11,1.83,2.48l-4.02,15.23c-0.63,2.4-0.3,4.46,0.99,6.19
				c1.3,1.72,3.14,2.59,5.54,2.59c2.43,0,4.74-0.86,6.93-2.59c2.19-1.72,3.61-3.79,4.24-6.19l15.66-59.36
				c0.36-1.37,1.77-2.48,3.14-2.48H435.64z"/>
			<path class="st5" d="M441.69,383.19c-1.37,0-2.19-1.11-1.83-2.48l15.66-59.36c1.27-4.83,4.1-8.98,8.47-12.44s8.98-5.2,13.8-5.2
				h17.71c4.83,0,8.51,1.74,11.06,5.22c2.54,3.48,3.18,7.62,1.92,12.42l-15.66,59.36c-0.36,1.37-1.77,2.48-3.14,2.48h-12.66
				c-1.37,0-2.19-1.11-1.83-2.48l8.02-30.39c0.36-1.37-0.46-2.48-1.83-2.48h-12.74c-1.37,0-2.77,1.11-3.14,2.48l-8.02,30.39
				c-0.36,1.37-1.77,2.48-3.14,2.48L441.69,383.19L441.69,383.19z M470.95,339.07h12.74c1.37,0,2.77-1.11,3.14-2.48l4.02-15.23
				c0.63-2.4,0.3-4.46-0.99-6.19c-1.3-1.72-3.14-2.59-5.54-2.59c-2.43,0-4.74,0.86-6.93,2.59c-2.19,1.72-3.61,3.79-4.24,6.19
				l-4.02,15.23C468.76,337.96,469.58,339.07,470.95,339.07z"/>
		</g>
	</g>
</g>
</svg>
