<svg width="550" height="190" xmlns="http://www.w3.org/2000/svg" version="1.1" xml:space="preserve">
 <g>
  <title>McGill_Baja_Logo</title>
  <g id="Layer_1_1_" class="st0" display="none">
   <polygon class="st1" points="554.2807186841965,294.8760735988617 559.5407284498215,294.29608702659607 642.160723567009,344.83609557151794 641.5107601881027,347.6060845851898 " display="inline" id="svg_1"/>
   <polygon class="st1" points="596.6107357740402,287.29608702659607 641.0407284498215,321.16608214378357 637.7107113599777,322.4960687160492 592.2107113599777,287.29608702659607 " display="inline" id="svg_2"/>
   <polygon class="st1" points="557.4607113599777,296.79608702659607 498.3507260084152,336.47611021995544 497.2607296705246,333.9061028957367 554.2807186841965,294.8760735988617 " display="inline" id="svg_3"/>
   <polygon class="st1" points="570.150713801384,416.7360589504242 548.2907284498215,396.09610533714294 535.3507260084152,381.93607115745544 521.0507382154465,365.81607604026794 501.7807492017746,334.17609190940857 498.3507260084152,336.47611021995544 518.5007504224777,368.33609557151794 569.3607357740402,420.31607604026794 " display="inline" id="svg_4"/>
   <polygon class="st1" points="544.3807553052902,325.66608214378357 596.6107357740402,287.29608702659607 592.2107113599777,287.29608702659607 543.3907650709152,323.30606627464294 " display="inline" id="svg_5"/>
   <polygon class="st1" points="498.3507260084152,336.47611021995544 544.3807553052902,325.66608214378357 543.3907650709152,323.30606627464294 497.2607296705246,333.9061028957367 " display="inline" id="svg_6"/>
   <polygon class="st1" points="557.4607113599777,296.79608702659607 594.3607357740402,288.95609068870544 592.2107113599777,287.29608702659607 554.2807186841965,294.8760735988617 " display="inline" id="svg_7"/>
   <polygon class="st1" points="548.2907284498215,396.09610533714294 582.3307675123215,382.5361077785492 622.440752863884,363.7961175441742 621.440752863884,361.43607115745544 580.670733332634,380.43607115745544 546.440752863884,394.07608580589294 " display="inline" id="svg_8"/>
   <polygon class="st1" points="505.440752863884,347.69608092308044 507.4807308912277,390.5361077785492 526.8507260084152,417.42606139183044 526.2407406568527,420.93607115745544 505.58073699474335,391.5461175441742 503.0407284498215,343.8860833644867 " display="inline" id="svg_9"/>
   <polygon class="st1" points="637.5807675123215,345.22611021995544 652.1407650709152,330.79608702659607 674.3407162427902,324.05606627464294 675.4907406568527,353.69608092308044 658.2707699537277,377.1160638332367 639.8407162427902,389.72611021995544 617.0907162427902,363.46610045433044 621.440752863884,361.43607115745544 " display="inline" id="svg_10"/>
   <polygon class="st1" points="665.660723567009,367.06607604026794 695.430743098259,371.58609557151794 695.5507382154465,374.30606627464294 663.9607113599777,369.3660638332367 " display="inline" id="svg_11"/>
   <polygon class="st1" points="675.3307675123215,349.59610533714294 698.2807186841965,363.6460931301117 697.5207699537277,366.7460687160492 675.4907406568527,353.69608092308044 " display="inline" id="svg_12"/>
   <polygon class="st1" points="569.5507382154465,437.2861077785492 600.2407406568527,446.3860833644867 598.8807553052902,443.1661126613617 571.3507260084152,434.81607604026794 " display="inline" id="svg_13"/>
   <polygon class="st1" points="540.7207211256027,453.0461175441742 572.8707455396652,423.17606139183044 594.7707699537277,410.18607115745544 593.3207577466965,406.7460687160492 573.3307675123215,418.72611021995544 582.3307675123215,382.5361077785492 578.5707577466965,384.0361077785492 569.3607357740402,420.31607604026794 539.2707699537277,449.60611510276794 " display="inline" id="svg_14"/>
   <polygon class="st1" points="531.440752863884,441.18607115745544 537.0907162427902,433.1661126613617 536.180743098259,431.0160882472992 529.430743098259,439.47611021995544 " display="inline" id="svg_15"/>
   <polygon class="st1" points="653.400713801384,315.1160943508148 668.410723567009,325.8560845851898 652.1407650709152,330.79608702659607 621.440752863884,361.43607115745544 612.180743098259,341.79608702659607 616.650713801384,329.2360894680023 " display="inline" id="svg_16"/>
   <polyline class="st1" points="546.440752863884,394.07608580589294 621.440752863884,361.43607115745544 639.8407162427902,389.72611021995544 572.8707455396652,423.17606139183044 544.4607113599777,394.8660638332367 546.440752863884,394.07608580589294 " display="inline" id="svg_17"/>
   <polyline class="st1" points="544.3807553052902,325.66608214378357 566.6307553052902,352.22611021995544 592.150713801384,375.08609557151794 544.4607113599777,394.8660638332367 518.5007504224777,368.33609557151794 498.3507260084152,336.47611021995544 501.7807492017746,334.17609190940857 543.3907650709152,323.30606627464294 544.3807553052902,325.66608214378357 " display="inline" id="svg_18"/>
   <polyline class="st1" points="551.7907284498215,320.22611021995544 549.8507260084152,332.18607115745544 547.410723567009,329.84610533714294 548.420733332634,322.2360894680023 551.7907284498215,320.22611021995544 " display="inline" id="svg_19"/>
   <polyline class="st1" points="512.5407284498215,358.9161126613617 506.2907284498215,365.57608580589294 507.4807308912277,390.5361077785492 509.84074676036835,393.81607604026794 520.3107479810715,391.56607604026794 524.5907162427902,393.05606627464294 526.8507260084152,417.42606139183044 525.0407284498215,422.97611021995544 530.0307186841965,428.67606139183044 536.180743098259,431.0160882472992 538.180743098259,438.5060784816742 535.400713801384,442.93607115745544 539.2707699537277,449.60611510276794 569.3607357740402,420.31607604026794 512.5407284498215,358.9161126613617 " display="inline" id="svg_20"/>
   <path class="st1" d="m545.62074,448.48609" display="inline" id="svg_21"/>
   <polyline class="st1" points="545.6207455396652,448.4860589504242 572.8707455396652,423.17606139183044 594.7707699537277,410.18607115745544 582.5707577466965,433.7660882472992 577.5607479810715,432.34610533714294 565.9807308912277,440.3760735988617 545.6207455396652,448.4860589504242 " display="inline" id="svg_22"/>
   <polyline class="st1" points="669.1007260084152,362.3860833644867 681.0207699537277,366.7961175441742 682.9607113599777,358.1260735988617 673.420733332634,354.08609557151794 669.1007260084152,362.3860833644867 " display="inline" id="svg_23"/>
   <g class="st1" display="inline" id="svg_24">
    <path d="m600.46074,334.93609c-6.01,-0.78 -11.72,4.71 -12.76,12.25c-1.04,7.54 3,14.29 9.01,15.07s11.72,-4.71 12.76,-12.25s-3,-14.3 -9.01,-15.07zm-3.33,24.24c-4.55,-0.59 -7.57,-5.86 -6.76,-11.77c0.81,-5.91 5.15,-10.22 9.7,-9.64c4.55,0.59 7.57,5.86 6.76,11.77c-0.81,5.92 -5.15,10.23 -9.7,9.64z" id="svg_25"/>
   </g>
   <polygon class="st1" points="597.6207455396652,336.80606627464294 601.3507260084152,347.1561028957367 618.5807675123215,351.2861077785492 621.160723567009,357.4061028957367 601.0207699537277,352.5160882472992 595.0507382154465,359.6460931301117 592.3307675123215,357.1460931301117 598.400713801384,349.6661126613617 594.2407406568527,338.1561028957367 " display="inline" id="svg_26"/>
   <ellipse transform="matrix(0.9496, -0.3134, 0.3134, 0.9496, -63.4796, 207.781)" class="st1" cx="585.97819" cy="390.24566" rx="26.51" ry="28.94" display="inline" id="svg_27"/>
   <ellipse transform="matrix(0.8892, -0.4574, 0.4574, 0.8892, -110.541, 277.264)" class="st1" cx="475.24388" cy="450.28789" rx="24.88" ry="27.19" display="inline" id="svg_28"/>
   <ellipse transform="matrix(0.8379, -0.5458, 0.5458, 0.8379, -36.4057, 430.255)" class="st1" cx="655.85469" cy="355.06617" rx="25.4" ry="28.41" display="inline" id="svg_29"/>
   <ellipse transform="matrix(0.8473, -0.5312, 0.5312, 0.8473, -88.1574, 374.152)" class="st1" cx="557.5407" cy="419.87383" rx="23.82" ry="27.24" display="inline" id="svg_30"/>
   <g class="st1" display="inline" id="svg_31">
    <path class="st2" d="m607.80074,380.90609c-6.66,1.47 -10.61,8.86 -8.84,16.5c1.77,7.64 8.61,12.63 15.26,11.16c6.66,-1.47 10.61,-8.86 8.84,-16.5c-1.77,-7.64 -8.6,-12.64 -15.26,-11.16zm12.62,11.73c1.37,5.92 -1.69,11.64 -6.85,12.78c-5.16,1.14 -10.45,-2.73 -11.83,-8.65c-1.37,-5.92 1.69,-11.64 6.85,-12.78c5.16,-1.14 10.45,2.73 11.83,8.65z" fill="#FFFFFF" id="svg_32"/>
   </g>
   <g class="st1" display="inline" id="svg_33">
    <path class="st2" d="m508.28074,448.21609c-6.44,2.17 -9.51,9.96 -6.86,17.39c2.65,7.44 10.03,11.71 16.47,9.54c6.44,-2.17 9.51,-9.96 6.86,-17.39c-2.65,-7.44 -10.03,-11.71 -16.47,-9.54zm13.91,10.39c2.06,5.76 -0.32,11.8 -5.32,13.48c-4.99,1.68 -10.71,-1.63 -12.77,-7.39s0.32,-11.8 5.32,-13.48c4.99,-1.68 10.71,1.62 12.77,7.39z" fill="#FFFFFF" id="svg_34"/>
   </g>
   <g class="st1" display="inline" id="svg_35">
    <path d="m556.63074,326.74609l0,0c-1.28,0.16 -2.56,0.49 -3.82,0.99c-7.25,2.89 -10.92,10.47 -8.2,16.93c0.14,0.32 0.29,0.64 0.45,0.94l-0.06,0l5.16,10.51l22.34,-3.03c0,0 3.55,-0.4 5.11,-1.28c0.15,-0.03 0.3,-0.08 0.44,-0.13c1.85,-0.74 2.58,-3.18 1.62,-5.45c0,0 -1.27,-3.71 -2.32,-3.89c-0.84,-0.14 -1.9,0.37 -3.01,0.52l-2.87,-7.15c0,-0.94 0.17,-3.2 1.87,-4.03c2.17,-1.05 6.46,-2.58 6.46,-2.58l-0.51,-1.21c0.02,0.01 -20.28,-2.12 -22.66,-1.14z" id="svg_36"/>
    <path d="m551.91074,355.87609c0,0 1.03,3.5 1.82,4.31s-2.94,2.68 -3.76,5.64c-0.82,2.96 -1.4,4.95 -0.4,7.31s5.94,7.04 5.94,7.04s10.32,5.8 10.79,5.99s14.31,-5.7 14.31,-5.7s6.26,-19.28 6.29,-20.43s-6.16,-5.21 -6.16,-5.21l-2.93,0.17l-1.74,-3.2l-24.16,4.08z" id="svg_37"/>
    <path d="m593.34074,344.09609c0,0 -1.85,-1.02 -3.94,0s-3.76,1.94 -4.96,3.54s-3.71,7.18 -3.71,7.18l6.16,5.21c0,0 1.21,-0.18 2.05,-1.27c0.83,-1.08 2.95,-3.56 2.93,-4.37s-0.67,-3.12 -0.82,-3.47s1.23,-1.21 0.87,-2.07c-0.36,-0.86 -0.85,-1.54 -1.04,-1.84s0.57,-0.64 1.16,-0.92c0.59,-0.28 1.39,-0.07 1.6,-0.64c0.23,-0.56 0.82,-0.98 -0.3,-1.35z" id="svg_38"/>
    <path d="m620.53074,356.52609l-22.03,-4.95c0,0 -0.61,-1.45 -2.94,2.68s-3.51,6.54 -3.51,6.54l-5.68,-2.12l-8.32,22.88l46.39,-19.42l-3.91,-5.61z" id="svg_39"/>
   </g>
   <path class="st3" d="m571.57074,335.96609c0,0 -0.81,-0.56 -1.26,-1.88c-0.16,-0.47 -1.76,-0.05 -3.71,0.85c-1.94,0.9 -4.76,2.94 -5.67,4.16s-0.49,2.28 -0.33,2.74c0.29,0.82 0.89,1.96 2.47,1.71s6.16,-2.01 7.6,-2.65c1.46,-0.65 2.36,-0.58 2.28,-1.53c-0.03,-0.32 -0.43,-1.97 -0.7,-2.38c-0.31,-0.48 -0.68,-1.02 -0.68,-1.02z" display="inline" fill="#FFFFFF" id="svg_40"/>
  </g>
  <g id="Layer_2_1_">
   <g id="svg_41">
    <path class="st4" d="m29.15854,81.63109l21.7,-77.81l3.8,0l25.4,36.88l45.93,-36.88l8.37,0l-21.7,77.81l-16.75,0l13.27,-47.58l-37.77,30.35l-20.61,-30.35l-13.27,47.58l-8.37,0l0,0z" fill="#E00E1E" id="svg_42"/>
    <path class="st4" d="m174.36854,38.43109l-8.29,0c0.96,-5.78 -1.03,-8.67 -5.95,-8.67c-2.3,0 -4.5,0.85 -6.62,2.55s-3.51,3.74 -4.17,6.12l-7.23,25.94c-0.65,2.32 -0.39,4.34 0.76,6.04s2.89,2.55 5.22,2.55c4.93,0 8.52,-2.86 10.77,-8.59l8.29,0c-3.89,11.51 -11.05,17.26 -21.48,17.26l-8.37,0c-4.57,0 -8.01,-1.7 -10.34,-5.09c-2.33,-3.39 -2.83,-7.45 -1.51,-12.18l7.23,-25.94c1.33,-4.78 4.12,-8.87 8.35,-12.26s8.62,-5.09 13.16,-5.09l8.37,0c10.47,0.01 14.41,5.79 11.81,17.36z" fill="#E00E1E" id="svg_43"/>
    <path class="st4" d="m207.43854,38.43109l25.04,0l-7.23,25.94c-1.6,5.73 -4.58,10.04 -8.95,12.93c-4.37,2.89 -8.55,4.34 -12.54,4.34l-16.74,0c-4.57,0 -8.01,-1.7 -10.34,-5.09c-2.33,-3.39 -2.83,-7.45 -1.51,-12.18l12.07,-43.28c1.3,-4.65 4.03,-8.69 8.21,-12.12s8.6,-5.15 13.27,-5.15l16.75,0c10.49,0 14.44,5.75 11.85,17.26l-8.37,0c0.95,-5.73 -1.02,-8.59 -5.9,-8.59l-8.37,0c-2.3,0 -4.5,0.84 -6.61,2.53s-3.5,3.71 -4.16,6.06l-12.07,43.28c-0.66,2.38 -0.41,4.4 0.77,6.08s2.91,2.51 5.21,2.51c5.4,-0.27 8.99,-3.13 10.77,-8.59l4.84,-17.35l-8.37,0l2.38,-8.58z" fill="#E00E1E" id="svg_44"/>
    <path class="st4" d="m247.66854,12.49109l2.42,-8.67l16.67,0l-2.42,8.67l-16.67,0zm-19.28,69.14l16.89,-60.55l16.67,0l-16.89,60.55l-16.67,0z" fill="#E00E1E" id="svg_45"/>
    <path class="st4" d="m253.08854,81.63109l21.7,-77.81l16.67,0l-21.7,77.81l-16.67,0z" fill="#E00E1E" id="svg_46"/>
    <path class="st4" d="m277.78854,81.63109l21.7,-77.81l16.67,0l-21.7,77.81l-16.67,0z" fill="#E00E1E" id="svg_47"/>
   </g>
   <g id="svg_48">
    <path class="st4" d="m2.30854,182.90109l21.7,-77.81l37.35,0c5.1,0 9.01,1.7 11.72,5.11c2.71,3.4 3.41,7.46 2.1,12.16l-1.22,4.38c-1.41,5.05 -4.07,9.02 -7.98,11.92c-3.91,2.89 -9.07,4.67 -15.47,5.35c6.21,0 10.38,1.74 12.52,5.21c2.14,3.47 2.57,7.49 1.29,12.06l-1.22,4.38c-1.3,4.67 -4.28,8.72 -8.92,12.14s-9.48,5.13 -14.53,5.13l-37.34,0l0,-0.03zm30.68,-43.2l9.36,0c2.54,0 4.97,-0.86 7.3,-2.57s3.82,-3.75 4.48,-6.1l2.42,-8.67c0.66,-2.35 0.29,-4.37 -1.09,-6.06s-3.34,-2.53 -5.88,-2.53l-9.36,0l-7.23,25.93zm-9.63,34.53l9.36,0c2.54,0 4.97,-0.85 7.29,-2.55s3.81,-3.71 4.46,-6.04l2.42,-8.67c1.61,-5.78 -0.7,-8.67 -6.94,-8.67l-9.36,0l-7.23,25.93z" fill="#E00E1E" id="svg_49"/>
    <path class="st4" d="m75.12854,182.90109l16.89,-60.55c1.32,-4.73 4.28,-8.79 8.88,-12.18c4.6,-3.39 9.46,-5.09 14.56,-5.09l18.72,0c5.1,0 9.01,1.7 11.72,5.11s3.41,7.46 2.1,12.16l-16.89,60.55l-18.63,0l9.65,-34.61l-18.72,0l-9.65,34.61l-18.63,0zm30.68,-43.2l18.72,0l4.84,-17.35c0.66,-2.35 0.29,-4.37 -1.09,-6.06s-3.34,-2.53 -5.88,-2.53c-2.57,0 -5,0.84 -7.31,2.53s-3.79,3.71 -4.45,6.06l-4.83,17.35z" fill="#E00E1E" id="svg_50"/>
    <path class="st4" d="m216.26854,105.09109l-16.89,60.55c-1.6,5.73 -4.36,10.04 -8.29,12.93c-3.93,2.89 -8.98,4.34 -15.16,4.34l-18.71,0c-6.18,0 -10.43,-1.45 -12.74,-4.34c-2.31,-2.89 -2.67,-7.2 -1.07,-12.93l4.84,-17.35l18.63,0l-4.84,17.35c-0.66,2.35 -0.29,4.37 1.09,6.06s3.34,2.53 5.88,2.53c2.57,0 5,-0.84 7.31,-2.53s3.79,-3.71 4.45,-6.06l16.89,-60.55l18.61,0z" fill="#E00E1E" id="svg_51"/>
    <path class="st4" d="m211.49854,182.90109l16.89,-60.55c1.32,-4.73 4.28,-8.79 8.88,-12.18c4.6,-3.39 9.46,-5.09 14.56,-5.09l18.72,0c5.1,0 9.01,1.7 11.72,5.11s3.41,7.46 2.1,12.16l-16.89,60.55l-18.63,0l9.65,-34.61l-18.72,0l-9.65,34.61l-18.63,0zm30.68,-43.2l18.72,0l4.84,-17.35c0.66,-2.35 0.29,-4.37 -1.09,-6.06s-3.34,-2.53 -5.88,-2.53c-2.57,0 -5,0.84 -7.31,2.53s-3.79,3.71 -4.45,6.06l-4.83,17.35z" fill="#E00E1E" id="svg_52"/>
   </g>
  </g>
  <g id="Layer_3" class="st0" display="none">
   <polygon class="st1" points="600.410723567009,301.0060784816742 605.660723567009,301.6460931301117 674.4607113599777,369.80606627464294 673.200762629509,372.35611510276794 " display="inline" id="svg_53"/>
   <polygon class="st1" points="643.3407162427902,303.34610533714294 678.8107479810715,346.5160882472992 675.2607601881027,347.0361077785492 639.0707577466965,302.33609557151794 " display="inline" id="svg_54"/>
   <polygon class="st1" points="603.0507382154465,303.6060845851898 536.410723567009,328.6561028957367 535.940752863884,325.8960931301117 600.410723567009,301.0060784816742 " display="inline" id="svg_55"/>
   <polygon class="st1" points="587.8607357740402,423.2560784816742 571.3307675123215,398.1460931301117 561.9807308912277,381.3960931301117 551.7807186841965,362.4161126613617 540.2807186841965,327.19608092308044 536.410723567009,328.6561028957367 548.7107113599777,364.2861077785492 586.2707699537277,426.5461175441742 " display="inline" id="svg_56"/>
   <polygon class="st1" points="583.700762629509,328.69608092308044 643.3407162427902,303.34610533714294 639.0707577466965,302.33609557151794 583.2707699537277,326.16608214378357 " display="inline" id="svg_57"/>
   <polygon class="st1" points="536.410723567009,328.6561028957367 583.700762629509,328.69608092308044 583.2707699537277,326.16608214378357 535.940752863884,325.8960931301117 " display="inline" id="svg_58"/>
   <polygon class="st1" points="603.0507382154465,303.6060845851898 640.7707699537277,304.44608092308044 639.0707577466965,302.33609557151794 600.410723567009,301.0060784816742 " display="inline" id="svg_59"/>
   <polygon class="st1" points="571.3307675123215,398.1460931301117 607.5707577466965,392.7660882472992 650.910723567009,383.7360589504242 650.4907406568527,381.20609068870544 606.440752863884,390.33609557151794 570.0007504224777,395.7460687160492 " display="inline" id="svg_60"/>
   <polygon class="st1" points="540.7407406568527,341.20609068870544 532.8907650709152,383.35611510276794 545.5707577466965,413.9860589504242 544.170733332634,417.2560784816742 530.8107479810715,383.9061028957367 539.2707699537277,336.94608092308044 " display="inline" id="svg_61"/>
   <polygon class="st1" points="669.910723567009,369.1360833644867 687.400713801384,358.43607115745544 710.5507382154465,356.97611021995544 704.8707455396652,386.08609557151794 682.7307308912277,404.92606139183044 661.8907650709152,412.96610045433044 645.7907284498215,382.17606139183044 650.4907406568527,381.20609068870544 " display="inline" id="svg_62"/>
   <polygon class="st1" points="692.2307308912277,396.83609557151794 720.170733332634,408.07608580589294 719.660723567009,410.7460687160492 690.0507382154465,398.69608092308044 " display="inline" id="svg_63"/>
   <polygon class="st1" points="705.650713801384,382.05606627464294 724.7607601881027,400.9960687160492 723.3107479810715,403.84610533714294 704.8707455396652,386.08609557151794 " display="inline" id="svg_64"/>
   <polygon class="st1" points="582.5607479810715,443.1160638332367 610.3407162427902,459.0160882472992 609.7607601881027,455.57608580589294 584.8807553052902,441.1260735988617 " display="inline" id="svg_65"/>
   <polygon class="st1" points="550.8907650709152,451.82608580589294 589.0307186841965,430.1460931301117 613.3307675123215,422.5260980129242 612.7107113599777,418.85611510276794 590.5107601881027,425.9161126613617 607.5707577466965,392.7660882472992 603.5707577466965,393.35611510276794 586.2707699537277,426.5461175441742 550.2607601881027,448.1561028957367 " display="inline" id="svg_66"/>
   <polygon class="st1" points="544.5707577466965,438.1561028957367 551.920733332634,431.6561028957367 551.5307186841965,429.35611510276794 543.0107601881027,436.0361077785492 " display="inline" id="svg_67"/>
   <polygon class="st1" points="692.2207211256027,343.46610045433044 704.3707455396652,357.3660638332367 687.400713801384,358.43607115745544 650.4907406568527,381.20609068870544 645.9907406568527,359.96610045433044 653.2207211256027,348.7660882472992 " display="inline" id="svg_68"/>
   <polyline class="st1" points="570.0007504224777,395.7460687160492 650.4907406568527,381.20609068870544 661.8907650709152,412.96610045433044 589.0307186841965,430.1460931301117 567.8807553052902,396.06607604026794 570.0007504224777,395.7460687160492 " display="inline" id="svg_69"/>
   <polyline class="st1" points="583.700762629509,328.69608092308044 599.2607601881027,359.6661126613617 618.8407162427902,387.7660882472992 567.8807553052902,396.06607604026794 548.7107113599777,364.2861077785492 536.410723567009,328.6561028957367 540.2807186841965,327.19608092308044 583.2707699537277,326.16608214378357 583.700762629509,328.69608092308044 " display="inline" id="svg_70"/>
   <polyline class="st1" points="592.160723567009,325.1060845851898 587.5207699537277,336.30606627464294 585.690752863884,333.46610045433044 588.420733332634,326.2861077785492 592.160723567009,325.1060845851898 " display="inline" id="svg_71"/>
   <polyline class="st1" points="545.0807675123215,353.7460687160492 537.4607113599777,358.7961175441742 532.8907650709152,383.35611510276794 534.430743098259,387.09610533714294 545.1307553052902,387.30606627464294 548.9607113599777,389.7460687160492 545.5707577466965,413.9860589504242 542.5307186841965,418.96610045433044 546.0807675123215,425.6561028957367 551.5307186841965,429.35611510276794 551.7507504224777,437.09610533714294 548.0307186841965,440.7660882472992 550.2607601881027,448.1561028957367 586.2707699537277,426.5461175441742 545.0807675123215,353.7460687160492 " display="inline" id="svg_72"/>
   <path class="st1" d="m556.70074,448.52609" display="inline" id="svg_73"/>
   <polyline class="st1" points="556.700762629509,448.5260980129242 589.0307186841965,430.1460931301117 613.3307675123215,422.5260980129242 596.0407284498215,442.68607115745544 591.5007504224777,440.1460931301117 578.3807553052902,445.30606627464294 556.700762629509,448.5260980129242 " display="inline" id="svg_74"/>
   <polyline class="st1" points="696.650713801384,393.07608580589294 707.2407406568527,400.10611510276794 711.1207455396652,392.10611510276794 702.7707699537277,385.9860589504242 696.650713801384,393.07608580589294 " display="inline" id="svg_75"/>
   <g class="st1" display="inline" id="svg_76">
    <path d="m636.15074,350.59609c-5.67,-2.14 -12.49,1.89 -15.23,8.99c-2.74,7.1 -0.36,14.6 5.31,16.73c5.67,2.14 12.49,-1.89 15.23,-8.99c2.73,-7.1 0.36,-14.6 -5.31,-16.73zm-8.81,22.83c-4.29,-1.62 -6.03,-7.44 -3.88,-13.01s7.36,-8.77 11.65,-7.15c4.29,1.62 6.03,7.44 3.88,13.01c-2.14,5.57 -7.36,8.77 -11.65,7.15z" id="svg_77"/>
   </g>
   <polygon class="st1" points="632.9607113599777,351.7660882472992 634.2107113599777,362.69608092308044 650.0307186841965,370.67606139183044 651.1407650709152,377.22611021995544 632.660723567009,367.83609557151794 625.2107113599777,373.4061028957367 623.1407650709152,370.34610533714294 630.7707699537277,364.46610045433044 629.3607357740402,352.30606627464294 " display="inline" id="svg_78"/>
   <ellipse transform="matrix(0.9962, -0.087, 0.087, 0.9962, -25.3226, 56.5516)" class="st1" cx="628.73408" cy="411.87724" rx="26.51" ry="28.94" display="inline" id="svg_79"/>
   <ellipse transform="matrix(0.9705, -0.241, 0.241, 0.9705, -71.3191, 137.494)" class="st1" cx="504.64419" cy="451.11444" rx="24.88" ry="27.19" display="inline" id="svg_80"/>
   <ellipse transform="matrix(0.9409, -0.3388, 0.3388, 0.9409, -63.6935, 266.349)" class="st1" cx="700.08357" cy="403.70163" rx="25.4" ry="28.41" display="inline" id="svg_81"/>
   <ellipse transform="matrix(0.9466, -0.3224, 0.3224, 0.9466, -81.3713, 218.614)" class="st1" cx="589.88654" cy="443.58921" rx="23.82" ry="27.24" display="inline" id="svg_82"/>
   <g class="st1" display="inline" id="svg_83">
    <path class="st2" d="m632.74074,397.01609c-6.82,-0.09 -12.36,6.19 -12.39,14.03s5.48,14.27 12.29,14.36c6.82,0.09 12.36,-6.19 12.39,-14.03s-5.47,-14.26 -12.29,-14.36zm9.59,14.32c-0.02,6.08 -4.32,10.94 -9.6,10.87c-5.28,-0.07 -9.55,-5.06 -9.53,-11.13c0.02,-6.08 4.32,-10.94 9.6,-10.87c5.28,0.07 9.55,5.06 9.53,11.13z" fill="#FFFFFF" id="svg_84"/>
   </g>
   <g class="st1" display="inline" id="svg_85">
    <path class="st2" d="m520.42074,439.67609c-6.77,0.63 -11.55,7.51 -10.67,15.35c0.88,7.85 7.07,13.7 13.84,13.07s11.55,-7.51 10.67,-15.35c-0.87,-7.85 -7.07,-13.7 -13.84,-13.07zm11.15,13.31c0.68,6.08 -3.02,11.41 -8.27,11.9s-10.05,-4.04 -10.73,-10.13c-0.68,-6.08 3.02,-11.41 8.27,-11.9c5.25,-0.48 10.05,4.05 10.73,10.13z" fill="#FFFFFF" id="svg_86"/>
   </g>
   <g class="st1" display="inline" id="svg_87">
    <path d="m595.38074,332.55609l0,0c-1.28,-0.13 -2.61,-0.11 -3.95,0.09c-7.72,1.15 -13.04,7.68 -11.86,14.6c0.06,0.35 0.14,0.69 0.22,1.02l-0.05,-0.01l2.61,11.41l22.44,2.18c0,0 3.55,0.42 5.26,-0.07c0.15,0 0.31,-0.01 0.46,-0.03c1.97,-0.29 3.24,-2.5 2.83,-4.94c0,0 -0.39,-3.91 -1.36,-4.31c-0.78,-0.33 -1.94,-0.08 -3.05,-0.18l-1.15,-7.62c0.21,-0.92 0.9,-3.08 2.74,-3.49c2.35,-0.53 6.88,-1.02 6.88,-1.02l-0.22,-1.29c0,-0.01 -19.27,-6.74 -21.8,-6.34z" id="svg_88"/>
    <path d="m584.09074,359.83609c0,0 0.2,3.64 0.78,4.62c0.58,0.97 -3.48,1.93 -4.95,4.62s-2.5,4.49 -2.07,7.02s4.16,8.22 4.16,8.22s8.71,8.01 9.13,8.3c0.41,0.29 15.23,-2.26 15.23,-2.26s10.52,-17.33 10.82,-18.44s-4.8,-6.48 -4.8,-6.48l-2.89,-0.51l-0.96,-3.51l-24.45,-1.58z" id="svg_89"/>
    <path d="m627.12074,357.87609c0,0 -1.57,-1.42 -3.83,-0.9c-2.27,0.51 -4.11,1.02 -5.64,2.31s-5.26,6.14 -5.26,6.14l4.8,6.48c0,0 1.22,0.1 2.28,-0.76s3.69,-2.79 3.86,-3.58c0.17,-0.79 0.06,-3.2 0,-3.57s1.48,-0.89 1.32,-1.81c-0.16,-0.92 -0.47,-1.7 -0.59,-2.03c-0.12,-0.34 0.7,-0.49 1.34,-0.63s1.37,0.25 1.71,-0.25s1.01,-0.78 0.01,-1.4z" id="svg_90"/>
    <path d="m650.73074,376.22609l-20.31,-9.88c0,0 -0.26,-1.55 -3.47,1.93s-4.92,5.56 -4.92,5.56l-5.05,-3.37l-13.35,20.36l49.61,-8.25l-2.51,-6.35z" id="svg_91"/>
   </g>
   <path class="st3" d="m607.80074,344.96609c0,0 -0.66,-0.73 -0.79,-2.12c-0.05,-0.49 -1.71,-0.45 -3.8,-0.02s-5.31,1.77 -6.47,2.75s-1,2.1 -0.95,2.6c0.09,0.87 0.42,2.12 2.01,2.23c1.59,0.12 6.45,-0.54 8,-0.83c1.57,-0.3 2.43,-0.02 2.57,-0.97c0.05,-0.32 0.03,-2.02 -0.14,-2.48c-0.2,-0.55 -0.43,-1.16 -0.43,-1.16z" display="inline" fill="#FFFFFF" id="svg_92"/>
  </g>
  <g id="Layer_5" class="st0" display="none">
   <g class="st1" display="inline" id="svg_93">
    <path class="st5" d="m228.37074,376.33609l0,-79.48l3.59,0l33.75,37.67l33.72,-37.67l7.92,0l0,79.48l-15.84,0l0,-48.6l-27.72,31l-27.5,-31l0,48.6l-7.92,0z" fill="#ED1C24" id="svg_94"/>
    <path class="st5" d="m357.46074,332.20609l-7.85,0c-0.62,-5.91 -3.26,-8.86 -7.92,-8.86c-2.17,0 -4.03,0.87 -5.59,2.61c-1.55,1.74 -2.33,3.82 -2.33,6.25l0,26.49c0,2.37 0.77,4.43 2.31,6.17c1.54,1.74 3.41,2.61 5.61,2.61c4.66,0 7.3,-2.92 7.92,-8.78l7.85,0c-0.64,11.76 -5.9,17.63 -15.77,17.63l-7.92,0c-4.32,0 -8.03,-1.73 -11.12,-5.19c-3.1,-3.46 -4.65,-7.61 -4.65,-12.44l0,-26.49c0,-4.88 1.55,-9.06 4.66,-12.52c3.11,-3.46 6.81,-5.19 11.1,-5.19l7.92,0c9.93,-0.01 15.19,5.9 15.78,17.71z" fill="#ED1C24" id="svg_95"/>
    <path class="st5" d="m391.87074,332.20609l23.69,0l0,26.49c0,5.85 -1.68,10.25 -5.05,13.2s-6.94,4.43 -10.72,4.43l-15.84,0c-4.32,0 -8.03,-1.73 -11.12,-5.19c-3.1,-3.46 -4.65,-7.61 -4.65,-12.44l0,-44.21c0,-4.75 1.52,-8.87 4.57,-12.38c3.05,-3.5 6.78,-5.26 11.2,-5.26l15.84,0c9.92,0 15.18,5.88 15.77,17.63l-7.92,0c-0.62,-5.85 -3.23,-8.78 -7.85,-8.78l-7.92,0c-2.17,0 -4.03,0.86 -5.59,2.59c-1.55,1.73 -2.33,3.79 -2.33,6.19l0,44.21c0,2.43 0.78,4.5 2.33,6.21s3.42,2.57 5.59,2.57c5.03,-0.28 7.67,-3.2 7.92,-8.78l0,-17.72l-7.92,0l0,-8.76z" fill="#ED1C24" id="svg_96"/>
    <path class="st5" d="m426.21074,305.71609l0,-8.86l15.77,0l0,8.86l-15.77,0zm0,70.62l0,-61.84l15.77,0l0,61.84l-15.77,0z" fill="#ED1C24" id="svg_97"/>
    <path class="st5" d="m452.70074,376.33609l0,-79.48l15.77,0l0,79.48l-15.77,0z" fill="#ED1C24" id="svg_98"/>
    <path class="st5" d="m479.19074,376.33609l0,-79.48l15.77,0l0,79.48l-15.77,0z" fill="#ED1C24" id="svg_99"/>
   </g>
   <g class="st1" display="inline" id="svg_100">
    <path class="st5" d="m229.30074,479.76609l0,-79.48l35.33,0c4.83,0 8.97,1.74 12.43,5.22s5.19,7.62 5.19,12.42l0,4.47c0,5.16 -1.47,9.22 -4.41,12.17s-7.34,4.77 -13.22,5.46c5.87,0 10.28,1.77 13.22,5.32c2.94,3.55 4.41,7.65 4.41,12.31l0,4.47c0,4.77 -1.74,8.91 -5.23,12.4c-3.49,3.49 -7.62,5.24 -12.39,5.24l-35.33,0zm17.63,-44.12l8.85,0c2.4,0 4.47,-0.88 6.23,-2.63c1.75,-1.75 2.63,-3.83 2.63,-6.23l0,-8.86c0,-2.4 -0.88,-4.46 -2.63,-6.19s-3.83,-2.59 -6.23,-2.59l-8.85,0l0,26.5l0,0zm0,35.26l8.85,0c2.4,0 4.47,-0.87 6.23,-2.61c1.75,-1.74 2.63,-3.79 2.63,-6.17l0,-8.86c0,-5.91 -2.95,-8.86 -8.85,-8.86l-8.85,0l0,26.5l-0.01,0z" fill="#ED1C24" id="svg_101"/>
    <path class="st5" d="m304.22074,479.76609l0,-61.84c0,-4.83 1.73,-8.98 5.19,-12.44s7.6,-5.2 12.43,-5.2l17.71,0c4.83,0 8.97,1.74 12.43,5.22s5.19,7.62 5.19,12.42l0,61.84l-17.62,0l0,-35.35l-17.71,0l0,35.35l-17.62,0zm17.63,-44.12l17.71,0l0,-17.72c0,-2.4 -0.88,-4.46 -2.63,-6.19s-3.83,-2.59 -6.23,-2.59c-2.43,0 -4.51,0.86 -6.25,2.59c-1.74,1.72 -2.61,3.79 -2.61,6.19l0,17.72l0.01,0z" fill="#ED1C24" id="svg_102"/>
    <path class="st5" d="m423.24074,400.29609l0,61.84c0,5.85 -1.48,10.25 -4.43,13.21c-2.95,2.95 -7.35,4.43 -13.2,4.43l-17.71,0c-5.85,0 -10.25,-1.48 -13.2,-4.43c-2.95,-2.95 -4.43,-7.35 -4.43,-13.21l0,-17.72l17.62,0l0,17.72c0,2.4 0.88,4.46 2.63,6.19c1.75,1.72 3.83,2.59 6.23,2.59c2.43,0 4.51,-0.86 6.25,-2.59c1.74,-1.72 2.61,-3.79 2.61,-6.19l0,-61.84l17.63,0z" fill="#ED1C24" id="svg_103"/>
    <path class="st5" d="m445.29074,479.76609l0,-61.84c0,-4.83 1.73,-8.98 5.19,-12.44s7.61,-5.2 12.43,-5.2l17.71,0c4.83,0 8.97,1.74 12.43,5.22s5.19,7.62 5.19,12.42l0,61.84l-17.62,0l0,-35.35l-17.71,0l0,35.35l-17.62,0zm17.62,-44.12l17.71,0l0,-17.72c0,-2.4 -0.88,-4.46 -2.63,-6.19c-1.75,-1.72 -3.83,-2.59 -6.23,-2.59c-2.43,0 -4.51,0.86 -6.25,2.59s-2.61,3.79 -2.61,6.19l0,17.72l0.01,0z" fill="#ED1C24" id="svg_104"/>
   </g>
  </g>
  <g id="Layer_4" class="st0" display="none">
   <polyline class="st6" points="568.190752863884,322.7660882472992 583.7407406568527,353.7360589504242 603.3307675123215,381.83609557151794 552.3707455396652,390.1360833644867 533.200762629509,358.35611510276794 520.900713801384,322.72611021995544 524.7707699537277,321.2760980129242 567.7607601881027,320.2460687160492 568.190752863884,322.7660882472992 " display="inline" fill="#4A494A" id="svg_105"/>
   <polygon class="st1" points="584.8907650709152,295.08609557151794 591.7307308912277,295.2861077785492 657.0007504224777,362.30606627464294 651.920733332634,364.82608580589294 " display="inline" id="svg_106"/>
   <polygon class="st1" points="627.0807675123215,296.5160882472992 663.2907284498215,340.58609557151794 657.950762629509,341.2360894680023 621.3307675123215,296.3660943508148 " display="inline" id="svg_107"/>
   <polygon class="st1" points="588.7107113599777,298.93607115745544 521.4907406568527,324.4061028957367 519.9807308912277,320.2460687160492 584.8907650709152,295.08609557151794 " display="inline" id="svg_108"/>
   <polygon class="st1" points="576.8307675123215,416.3660638332367 561.0607479810715,391.35611510276794 540.2207211256027,356.08609557151794 526.5107601881027,320.2460687160492 520.900713801384,322.72611021995544 533.200762629509,358.35611510276794 570.7607601881027,420.6260735988617 " display="inline" id="svg_109"/>
   <polygon class="st1" points="567.660723567009,323.4061028957367 627.8307675123215,297.42609190940857 619.920733332634,296.4061028957367 563.670733332634,320.2460687160492 " display="inline" id="svg_110"/>
   <polygon class="st1" points="521.4907406568527,324.4061028957367 569.0107601881027,324.4061028957367 567.1007260084152,320.2460687160492 519.9807308912277,320.2460687160492 " display="inline" id="svg_111"/>
   <polygon class="st1" points="588.7107113599777,298.93607115745544 629.700762629509,299.70609068870544 626.4907406568527,295.79608702659607 584.8907650709152,295.08609557151794 " display="inline" id="svg_112"/>
   <polygon class="st1" points="555.8207577466965,392.21610045433044 592.0607479810715,386.83609557151794 635.400713801384,377.80606627464294 634.9707211256027,375.2760980129242 590.930743098259,384.4161126613617 554.4807308912277,389.82608580589294 " display="inline" id="svg_113"/>
   <polygon class="st1" points="525.5307186841965,336.1360833644867 518.4807308912277,377.18607115745544 530.5707577466965,406.84610533714294 528.660723567009,411.32608580589294 515.2907284498215,377.97611021995544 523.7607601881027,331.0160882472992 " display="inline" id="svg_114"/>
   <polygon class="st1" points="654.400713801384,363.20609068870544 671.8907650709152,352.5160882472992 695.0407284498215,351.0461175441742 689.3607357740402,380.1561028957367 667.2107113599777,398.9960687160492 646.3807553052902,407.0361077785492 630.2707699537277,376.2560784816742 634.9707211256027,375.2760980129242 " display="inline" id="svg_115"/>
   <polygon class="st1" points="677.1307553052902,390.56607604026794 704.660723567009,402.1561028957367 704.1407650709152,406.81607604026794 673.160723567009,393.93607115745544 " display="inline" id="svg_116"/>
   <polygon class="st1" points="690.2707699537277,375.4960687160492 709.4607113599777,394.6561028957367 707.8007382154465,397.9161126613617 689.3607357740402,380.1561028957367 " display="inline" id="svg_117"/>
   <polygon class="st1" points="566.7507504224777,437.59610533714294 594.910723567009,453.5361077785492 594.0607479810715,448.55606627464294 569.5107601881027,433.96610045433044 " display="inline" id="svg_118"/>
   <polygon class="st1" points="535.3707455396652,445.9061028957367 573.5207699537277,424.21610045433044 597.8207577466965,416.60611510276794 597.200762629509,412.92606139183044 575.0007504224777,419.9960687160492 592.0607479810715,386.83609557151794 588.0607479810715,387.42606139183044 570.7607601881027,420.6260735988617 534.7507504224777,442.22611021995544 " display="inline" id="svg_119"/>
   <polygon class="st1" points="530.0307186841965,434.6160638332367 536.690752863884,427.3960931301117 535.7207211256027,421.67606139183044 527.5007504224777,430.10611510276794 " display="inline" id="svg_120"/>
   <polygon class="st1" points="676.7107113599777,337.5361077785492 688.8607357740402,351.43607115745544 671.8907650709152,352.5160882472992 634.9707211256027,375.2760980129242 630.4707211256027,354.0361077785492 637.700762629509,342.83609557151794 " display="inline" id="svg_121"/>
   <polyline class="st1" points="554.4807308912277,389.82608580589294 634.9707211256027,375.2760980129242 646.3807553052902,407.0361077785492 573.5207699537277,424.21610045433044 552.3707455396652,390.1360833644867 554.4807308912277,389.82608580589294 " display="inline" id="svg_122"/>
   <polyline class="st1" points="577.0507382154465,319.3560845851898 572.0107601881027,331.3760735988617 570.3207577466965,327.19608092308044 572.920733332634,320.9960687160492 " display="inline" id="svg_123"/>
   <polyline class="st1" points="529.5607479810715,347.81607604026794 521.950762629509,352.8760735988617 517.3707455396652,377.43607115745544 518.920733332634,381.1661126613617 529.6207455396652,381.3860833644867 533.450762629509,383.81607604026794 530.0507382154465,408.05606627464294 527.0207699537277,413.0461175441742 530.5607479810715,419.7360589504242 536.0107601881027,423.42606139183044 536.2407406568527,431.1661126613617 532.5207699537277,434.84610533714294 534.7507504224777,442.22611021995544 570.7607601881027,420.6260735988617 529.5607479810715,347.81607604026794 " display="inline" id="svg_124"/>
   <path class="st1" d="m541.19074,442.59609" display="inline" id="svg_125"/>
   <polyline class="st1" points="541.190752863884,442.59610533714294 573.5207699537277,424.21610045433044 597.8207577466965,416.60611510276794 580.5307186841965,436.7560784816742 575.9807308912277,434.21610045433044 562.8707455396652,439.3760735988617 541.190752863884,442.59610533714294 " display="inline" id="svg_126"/>
   <polyline class="st1" points="681.1407650709152,387.1561028957367 691.7307308912277,394.17606139183044 695.6107357740402,386.17606139183044 687.2507504224777,380.05606627464294 681.1407650709152,387.1561028957367 " display="inline" id="svg_127"/>
   <g class="st1" display="inline" id="svg_128">
    <path d="m620.64074,344.66609c-5.67,-2.14 -12.49,1.89 -15.23,8.99s-0.36,14.6 5.31,16.73c5.67,2.14 12.49,-1.89 15.23,-8.99c2.73,-7.1 0.36,-14.59 -5.31,-16.73zm-8.81,22.84c-4.29,-1.62 -6.03,-7.44 -3.88,-13.01s7.36,-8.77 11.65,-7.15c4.29,1.62 6.03,7.44 3.88,13.01c-2.14,5.56 -7.36,8.76 -11.65,7.15z" id="svg_129"/>
   </g>
   <polygon class="st1" points="617.450762629509,345.84610533714294 618.690752863884,356.7760980129242 634.5207699537277,364.7460687160492 635.6307553052902,371.2961175441742 617.150713801384,361.9061028957367 609.700762629509,367.47611021995544 607.6307553052902,364.42606139183044 615.2507504224777,358.5361077785492 613.8507260084152,346.3760735988617 " display="inline" id="svg_130"/>
   <ellipse transform="matrix(0.9705, -0.241, 0.241, 0.9705, -70.3479, 133.579)" class="st1" cx="489.12419" cy="445.18444" rx="24.88" ry="27.19" display="inline" id="svg_131"/>
   <ellipse transform="matrix(0.9466, -0.3224, 0.3224, 0.9466, -80.2902, 213.298)" class="st1" cx="574.37654" cy="437.66921" rx="23.82" ry="27.24" display="inline" id="svg_132"/>
   <ellipse transform="matrix(0.9409, -0.3388, 0.3388, 0.9409, -62.6031, 260.74)" class="st1" cx="684.56357" cy="397.77163" rx="25.4" ry="28.41" display="inline" id="svg_133"/>
   <ellipse transform="matrix(0.9962, -0.087, 0.087, 0.9962, -24.8655, 55.1797)" class="st1" cx="613.22408" cy="405.94724" rx="26.51" ry="28.94" display="inline" id="svg_134"/>
   <g class="st1" display="inline" id="svg_135">
    <path class="st2" d="m617.23074,391.09609c-6.82,-0.09 -12.36,6.19 -12.39,14.03s5.48,14.27 12.29,14.36c6.82,0.09 12.36,-6.19 12.39,-14.03s-5.47,-14.27 -12.29,-14.36zm9.58,14.31c-0.02,6.08 -4.32,10.94 -9.6,10.87c-5.28,-0.07 -9.55,-5.06 -9.53,-11.13c0.02,-6.08 4.32,-10.94 9.6,-10.87c5.29,0.07 9.55,5.06 9.53,11.13z" fill="#FFFFFF" id="svg_136"/>
   </g>
   <g class="st1" display="inline" id="svg_137">
    <path class="st2" d="m504.91074,433.75609c-6.77,0.63 -11.55,7.51 -10.67,15.35c0.88,7.85 7.07,13.7 13.84,13.07s11.55,-7.51 10.67,-15.35c-0.87,-7.85 -7.07,-13.7 -13.84,-13.07zm11.15,13.3c0.68,6.08 -3.02,11.41 -8.27,11.9c-5.25,0.49 -10.05,-4.04 -10.73,-10.13c-0.68,-6.08 3.02,-11.41 8.27,-11.9c5.25,-0.48 10.05,4.05 10.73,10.13z" fill="#FFFFFF" id="svg_138"/>
   </g>
   <g class="st1" display="inline" id="svg_139">
    <path d="m579.86074,326.63609l0,0c-1.28,-0.13 -2.61,-0.11 -3.95,0.09c-7.72,1.15 -13.04,7.68 -11.86,14.6c0.06,0.35 0.14,0.69 0.22,1.02l-0.05,-0.01l2.61,11.41l22.44,2.18c0,0 3.55,0.42 5.26,-0.07c0.15,0 0.31,-0.01 0.46,-0.03c1.97,-0.29 3.24,-2.5 2.83,-4.94c0,0 -0.39,-3.91 -1.36,-4.31c-0.78,-0.33 -1.94,-0.08 -3.05,-0.18l-1.15,-7.62c0.21,-0.92 0.9,-3.08 2.74,-3.49c2.35,-0.53 6.88,-1.02 6.88,-1.02l-0.22,-1.29c0.01,-0.01 -19.26,-6.75 -21.8,-6.34z" id="svg_140"/>
    <path d="m568.58074,353.90609c0,0 0.2,3.64 0.78,4.62c0.58,0.97 -3.48,1.93 -4.95,4.62c-1.47,2.69 -2.5,4.49 -2.07,7.02s4.16,8.22 4.16,8.22s8.71,8.01 9.13,8.3c0.41,0.29 15.23,-2.26 15.23,-2.26s10.52,-17.33 10.82,-18.44s-4.8,-6.48 -4.8,-6.48l-2.89,-0.51l-0.96,-3.51l-24.45,-1.58z" id="svg_141"/>
    <path d="m611.61074,351.95609c0,0 -1.57,-1.42 -3.83,-0.9c-2.27,0.51 -4.11,1.02 -5.64,2.31s-5.26,6.14 -5.26,6.14l4.8,6.48c0,0 1.22,0.1 2.28,-0.76c1.06,-0.86 3.69,-2.79 3.86,-3.58s0.06,-3.2 0,-3.57s1.48,-0.89 1.32,-1.81c-0.16,-0.92 -0.47,-1.7 -0.59,-2.03s0.7,-0.49 1.34,-0.63s1.37,0.25 1.71,-0.25c0.34,-0.51 1.01,-0.79 0.01,-1.4z" id="svg_142"/>
    <path d="m635.22074,370.29609l-20.31,-9.88c0,0 -0.26,-1.55 -3.47,1.93c-3.21,3.48 -4.92,5.56 -4.92,5.56l-5.05,-3.37l-13.35,20.36l49.61,-8.25l-2.51,-6.35z" id="svg_143"/>
   </g>
   <path class="st3" d="m592.29074,339.03609c0,0 -0.66,-0.73 -0.79,-2.12c-0.05,-0.49 -1.71,-0.45 -3.8,-0.02c-2.1,0.43 -5.31,1.77 -6.47,2.75s-1,2.1 -0.95,2.6c0.09,0.87 0.42,2.12 2.01,2.23c1.59,0.12 6.45,-0.54 8,-0.83c1.57,-0.3 2.43,-0.02 2.57,-0.97c0.05,-0.32 0.03,-2.02 -0.14,-2.48c-0.2,-0.55 -0.43,-1.16 -0.43,-1.16z" display="inline" fill="#FFFFFF" id="svg_144"/>
   <polygon class="st1" points="568.190752863884,322.7660882472992 571.2407406568527,328.84610533714294 567.0107601881027,332.32608580589294 561.650713801384,322.7660882472992 " display="inline" id="svg_145"/>
  </g>
  <g id="Layer_6">
   <path class="st4" d="m373.38854,31.18147l15.52,30.89c0.03,0.05 0.05,0.1 0.09,0.15l18.46,26.49c0.5,0.72 0.08,1.71 -0.78,1.85l-48.31,7.87c-0.48,0.08 -0.95,-0.14 -1.2,-0.56l-18.69,-30.99c-0.04,-0.07 -0.08,-0.15 -0.11,-0.23l-11.89,-34.42c-0.21,-0.61 0.1,-1.27 0.7,-1.5l2.6,-0.98c0.12,-0.05 0.26,-0.07 0.39,-0.08l41.77,-1c0.59,-0.01 1.1,0.41 1.2,0.99l0.25,1.52" fill="#E00E1E" id="svg_146"/>
   <path d="m361.78854,100.51147l35.43,-5.26c0.02,0 0.05,-0.01 0.07,-0.01l42.19,-8.79c0.62,-0.13 1.03,-0.73 0.93,-1.36l-0.03,-0.19c-0.11,-0.66 -0.75,-1.1 -1.41,-0.96l-42.81,8.88c-0.02,0 -0.04,0.01 -0.07,0.01l-34.71,5.15c-0.82,0.12 -1.26,1.03 -0.86,1.75l0.12,0.21c0.23,0.41 0.69,0.64 1.15,0.57z" id="svg_147"/>
   <path d="m342.03854,153.47147l36.56,-20.78c0.07,-0.04 0.15,-0.08 0.23,-0.1l23.2,-7.27c0.57,-0.18 0.91,-0.74 0.81,-1.33l-0.22,-1.31c-0.12,-0.71 -0.84,-1.15 -1.53,-0.93l-18.19,5.79c-1,0.32 -1.9,-0.73 -1.41,-1.67l14.7,-28.57c0.44,-0.86 -0.27,-1.86 -1.23,-1.71l-1.12,0.17c-0.38,0.06 -0.7,0.29 -0.88,0.62l-16.87,32.36c-0.1,0.19 -0.25,0.36 -0.44,0.47l-35.03,21.01c-0.42,0.25 -0.64,0.73 -0.56,1.21l0.2,1.21c0.17,0.81 1.07,1.24 1.78,0.83z" id="svg_148"/>
   <path d="m346.38854,151.00147" id="svg_149"/>
   <path d="m440.42854,77.38147l-0.62,-3.64c-0.06,-0.37 -0.3,-0.69 -0.63,-0.86l-6.88,-3.47c-0.51,-0.26 -0.75,-0.84 -0.6,-1.39c1.74,-6.53 -0.67,-12.99 -5.87,-14.95c-5.67,-2.14 -12.49,1.89 -15.23,8.99s-0.36,14.6 5.31,16.73c4.27,1.61 9.19,-0.29 12.53,-4.36c0.35,-0.43 0.97,-0.54 1.47,-0.29l8.82,4.48c0.87,0.46 1.86,-0.28 1.7,-1.24zm-12.75,-10.29l0,0c-2.37,-1.19 -3.97,-3.5 -4.27,-6.13l-0.43,-3.78c-0.11,-1.01 0.87,-1.78 1.82,-1.42l0,0c3.65,1.38 5.45,5.79 4.58,10.51c-0.14,0.76 -1,1.17 -1.7,0.82zm-14.53,-4.19c0.91,-2.35 2.36,-4.27 4.06,-5.59c0.86,-0.66 2.11,-0.16 2.23,0.92l0.36,3.1c0.4,3.48 -1.05,6.92 -3.82,9.07l-1.43,1.1c-0.66,0.51 -1.63,0.19 -1.87,-0.61c-0.71,-2.36 -0.61,-5.2 0.47,-7.99zm3.88,13.01c-0.46,-0.17 -0.88,-0.4 -1.27,-0.66l6.01,-4.49c0.36,-0.27 0.84,-0.31 1.25,-0.11l2.15,1.09c0.72,0.36 0.89,1.34 0.3,1.9c-2.48,2.34 -5.66,3.32 -8.44,2.27z" id="svg_150"/>
   <path d="m514.06854,102.48147l-18.14,-18.26c-0.11,-0.38 -0.21,-0.69 -0.32,-1.06l4.03,-20.62c0.26,-1.34 -0.61,-2.64 -1.96,-2.9l0,0c-0.1,-0.02 -0.19,-0.05 -0.28,-0.09l-5.87,-2.74c-0.13,-0.1 -0.26,-0.19 -0.39,-0.29l-8.17,-9.35c-0.66,-0.76 -1.66,-1.13 -2.66,-1l-12.26,1.67c-0.5,0.07 -1.35,-1.01 -1.48,-1.17l-31.67,-38.54l-2.33,-2.84c-0.56,-0.68 -1.39,-1.08 -2.27,-1.09l-38.64,-0.67c-1.04,-0.02 -2.06,0.17 -3.03,0.54l-60.9,23.6c-1.42,0.55 -2.14,2.13 -1.62,3.56l0,0c0.01,0.02 0.02,0.04 0.03,0.06s0.01,0.03 0.01,0.05l0.06,0.16c0.13,0.36 0.63,1.8 0.79,2.25l2.55,7.39c0.02,0.19 0.03,0.38 0.05,0.57l-6.85,43.05c0.12,1.08 0.24,2.1 0.36,3.17l11.5,28.69c0.14,0.35 0.11,0.74 -0.09,1.06l-0.82,1.35c-0.92,1.51 -0.97,3.38 -0.15,4.94l1.4,2.64c0.76,0.85 1.49,1.66 2.26,2.52l0,0c1.46,0.99 1.67,3.06 0.44,4.32l-4.33,4.44c-0.37,0.38 -0.44,0.95 -0.18,1.41l1.3,2.31c0.39,0.7 1.36,0.81 1.9,0.22l3.13,-3.4c0.7,-0.76 1.96,-0.26 1.96,0.77c0.01,0.24 -0.09,0.48 -0.26,0.65l-2.94,2.9c-0.11,0.43 -0.19,0.76 -0.3,1.19l1.79,5.91c0.14,0.48 0.57,0.81 1.07,0.84l5.49,0.32c0.08,0 0.16,-0.01 0.24,-0.01l21.43,-3.18c0.09,-0.02 0.17,-0.05 0.26,-0.07l3.49,-1.37c0.33,-0.13 0.71,-0.1 1.02,0.07l25.23,14.28c0.87,0.49 1.92,-0.24 1.75,-1.23l-0.34,-1.99c-0.2,-0.29 -0.37,-0.53 -0.56,-0.82l-18.24,-10.84c-1.22,-0.73 -1.08,-2.54 0.25,-3.07l0,0c0.25,-0.1 0.52,-0.08 0.75,0.05l5.33,3.31c0.37,0.2 1.28,-0.52 1.55,-0.84l12.38,-17.72c0.12,-0.14 0.29,-0.24 0.47,-0.28l45.93,-10.83c1.07,-0.25 1.93,-0.91 2.47,-1.76c0.35,-0.55 1.12,-0.59 1.48,-0.07c0.31,0.45 0.88,0.62 1.39,0.43l18.13,-7c1.06,-0.63 2.1,-1.25 3.17,-1.88l1.73,-1.47c1.72,-1.46 4.11,-1.84 6.19,-0.97l26.13,10.87c0.73,0.3 1.55,-0.18 1.63,-0.96l0.24,-2.22c0.06,-0.52 -0.23,-1.02 -0.72,-1.22l-22.22,-9.35c-2.06,-0.87 -2.48,-3.6 -0.78,-5.05l0.3,-0.25l0,0l11.04,7.32c0.72,0.48 1.7,0.05 1.83,-0.81l0.92,-6.07c0.34,-0.7 1.26,-0.86 1.82,-0.32l9.91,9.54c0.57,0.55 1.52,0.39 1.88,-0.32l0.56,-1.09c0.19,-0.46 0.1,-0.99 -0.25,-1.34zm-110.58,-94.96l9.03,0.17c1.28,0.02 1.62,1.78 0.44,2.28l-6.28,2.66c-0.45,0.19 -0.97,0.09 -1.31,-0.26l-2.76,-2.83c-0.73,-0.77 -0.18,-2.04 0.88,-2.02zm35.35,50.02l-2.27,3.52c-0.57,0.89 -0.77,1.96 -0.55,3l2.45,11.57c0.2,0.96 -0.79,1.74 -1.68,1.31l-16.68,-8.12c0,0 -0.26,-1.55 -3.47,1.93c-1.6,1.74 -2.83,3.12 -3.66,4.08c-0.73,0.84 -1.97,1 -2.9,0.39l-1.68,-1.12c0.25,-0.11 0.51,-0.26 0.76,-0.46c1.06,-0.86 3.69,-2.79 3.86,-3.58s0.06,-3.2 0,-3.57s1.48,-0.89 1.32,-1.81s-0.47,-1.7 -0.59,-2.03c-0.12,-0.34 0.7,-0.49 1.34,-0.63s1.37,0.25 1.71,-0.25s1.01,-0.78 0,-1.4c0,0 -1.57,-1.42 -3.83,-0.9c-2.27,0.51 -4.11,1.02 -5.64,2.31c-1.21,1.02 -3.8,4.27 -4.83,5.58c-0.27,0.34 -0.71,0.51 -1.14,0.44l-1.45,-0.26c-0.45,-0.08 -0.82,-0.41 -0.94,-0.86l-0.6,-2.21c0.5,-0.03 0.97,-0.1 1.35,-0.21c0.15,0 0.31,-0.01 0.46,-0.03c1.97,-0.29 3.24,-2.5 2.83,-4.94c0,0 -0.39,-3.91 -1.36,-4.31c-0.54,-0.22 -1.25,-0.18 -2,-0.16c-0.6,0.01 -1.11,-0.42 -1.2,-1.01l-0.41,-2.73l0,0c-0.15,0.95 -1,0.67 -2.57,0.97c-1.55,0.29 -6.41,0.95 -8,0.83s-1.91,-1.37 -2.01,-2.23c-0.05,-0.49 -0.21,-1.62 0.95,-2.6c1.16,-0.98 4.37,-2.32 6.47,-2.75s3.76,-0.47 3.8,0.02c0.13,1.39 0.79,2.12 0.79,2.12s0.01,0.04 0.04,0.1c-0.03,-0.29 -0.02,-0.58 0.06,-0.86c0.31,-1.04 1.05,-2.65 2.61,-3c2.35,-0.53 6.88,-1.02 6.88,-1.02l0,0c-0.14,-0.8 -0.69,-1.46 -1.46,-1.72c-4.3,-1.48 -18.42,-6.25 -20.56,-5.9l0,0c-1.28,-0.13 -2.61,-0.11 -3.95,0.09l0,0c-0.91,0.14 -1.63,-0.78 -1.27,-1.63l1.94,-4.62c0.3,-0.72 0.87,-1.29 1.58,-1.59l20.17,-8.71c0.45,-0.2 0.98,-0.09 1.32,0.27l33.63,35c0.98,0.99 1.13,2.52 0.38,3.69zm-64.13,-26.53l0.64,-0.28c0.98,-0.42 1.97,0.56 1.56,1.55l-0.35,0.84c-0.39,0.93 -1.7,0.98 -2.15,0.07l-0.29,-0.57c-0.31,-0.59 -0.04,-1.34 0.59,-1.61zm-30.99,-4.65l48.25,-18.28c1.12,-0.43 2.39,-0.14 3.23,0.73l4.74,4.94c0.58,0.6 0.37,1.59 -0.39,1.91l-29.94,12.68c-0.49,0.21 -1.02,0.32 -1.56,0.32l-23.91,0c-1.32,-0.01 -1.65,-1.84 -0.42,-2.3zm-11.77,28.51c0.21,-1.21 1.89,-1.34 2.29,-0.18c0.14,0.42 0.23,0.69 0.23,0.69c0.17,0.49 -0.01,1.04 -0.45,1.32c0,0 -2.67,1.66 -2.5,0.68l0.43,-2.51zm4.41,53.72c-0.12,0.88 -4.75,-10.66 -6.93,-16.17c-0.53,-1.34 0.49,-2.78 1.92,-2.73c1.57,0.05 3.15,0.1 3.15,0.1c0.21,0 0.41,0.07 0.59,0.18l1.39,0.88c1.32,0.84 2.03,2.38 1.81,3.93l-1.93,13.81zm31.87,-11.9c-2.06,0.37 -4.13,-0.58 -5.19,-2.38l-17.56,-29.73c-0.03,-0.06 -0.06,-0.12 -0.09,-0.18l-10.53,-27.52c-0.75,-1.96 0.7,-4.07 2.8,-4.07l28.35,0c1.09,0 2.09,0.59 2.62,1.53l2.3,4.11c0.55,0.97 0.57,2.18 -0.02,3.13c-1.5,2.4 -2.15,5.24 -1.66,8.14c0.06,0.35 0.14,0.69 0.22,1.02l-0.05,-0.01l1.74,7.6c0.36,1.57 1.04,3.12 2.29,4.15c0.23,0.19 0.38,0.46 0.4,0.77c0.1,1.15 0.32,3.03 0.71,3.68c0.58,0.97 -3.48,1.93 -4.95,4.62c-1.47,2.69 -2.5,4.49 -2.07,7.02c0.37,2.18 3.2,6.71 3.97,7.91c0.13,0.2 0.27,0.37 0.45,0.54c0.77,0.7 3.13,2.87 5.22,4.78c1.22,1.12 0.64,3.15 -0.99,3.44l-7.96,1.45zm91.98,-47.8l-16.37,2.22c-0.2,0.03 -33.6,-33.76 -33.6,-33.76c-0.56,-0.57 -0.37,-1.53 0.37,-1.85l17.1,-7.39c0.22,-0.09 0.45,-0.14 0.69,-0.14c0.49,0.01 0.95,0.23 1.26,0.61l31.32,38.36c0.57,0.74 0.14,1.83 -0.77,1.95zm33.43,40.45l0.6,-0.51c0.1,-0.09 0.19,-0.19 0.25,-0.31c0.26,0.25 0.45,0.43 0.5,0.48l5.81,5.59l-7.16,-5.25z" id="svg_151"/>
   <ellipse transform="matrix(0.9705, -0.241, 0.241, 0.9705, -70.4627, 140.3)" cx="372.06783" cy="108.7327" rx="24.88" ry="27.19" id="svg_152"/>
   <ellipse transform="matrix(0.9466, -0.3224, 0.3224, 0.9466, -80.0611, 222.342)" cx="486.68514" cy="90.20349" rx="23.82" ry="27.24" id="svg_153"/>
   <ellipse transform="matrix(0.9409, -0.3388, 0.3388, 0.9409, -62.2792, 270.256)" cx="602.9831" cy="48.37539" rx="25.4" ry="28.41" id="svg_154"/>
   <ellipse transform="matrix(0.9962, -0.087, 0.087, 0.9962, -25.0955, 57.5799)" cx="444.96504" cy="96.13672" rx="26.51" ry="28.94" id="svg_155"/>
   <g id="svg_156">
    <path class="st2" d="m422.42854,99.50147c-6.82,-0.09 -12.36,6.19 -12.39,14.03s5.48,14.27 12.29,14.36c6.82,0.09 12.36,-6.19 12.39,-14.03s-5.47,-14.27 -12.29,-14.36zm9.58,14.32c-0.02,6.08 -4.32,10.94 -9.6,10.87c-5.28,-0.07 -9.55,-5.06 -9.53,-11.13c0.02,-6.08 4.32,-10.94 9.6,-10.87c5.29,0.07 9.55,5.05 9.53,11.13z" fill="#FFFFFF" id="svg_157"/>
   </g>
   <g id="svg_158">
    <path class="st2" d="m310.10854,142.16147c-6.77,0.63 -11.55,7.51 -10.67,15.35c0.88,7.85 7.07,13.7 13.84,13.07s11.55,-7.51 10.67,-15.35c-0.87,-7.85 -7.07,-13.7 -13.84,-13.07zm11.15,13.31c0.68,6.08 -3.02,11.41 -8.27,11.9s-10.05,-4.04 -10.73,-10.13c-0.68,-6.08 3.02,-11.41 8.27,-11.9s10.05,4.04 10.73,10.13z" fill="#FFFFFF" id="svg_159"/>
   </g>
   <path class="st2" d="m398.04854,51.07147c0.05,-0.32 0.03,-2.02 -0.14,-2.48c-0.15,-0.41 -0.32,-0.86 -0.39,-1.05c0,0.03 0,0.06 0,0.08l0.53,3.45z" fill="#FFFFFF" id="svg_160"/>
  </g>
  <g id="Layer_7" class="st0" display="none">
   <g class="st1" display="inline" id="svg_161">
    <g id="svg_162">
     <path class="st5" d="m250.97074,370.61609l19.66,-74.51c0.36,-1.37 1.77,-2.48 3.14,-2.48l0,0c0.71,0 1.3,0.3 1.63,0.83l21.99,34.78c0.7,1.1 2.42,1.1 3.7,0l40.3,-34.78c0.61,-0.53 1.36,-0.83 2.07,-0.83l4.33,0c1.37,0 2.19,1.11 1.83,2.48l-19.66,74.51c-0.36,1.37 -1.77,2.48 -3.14,2.48l-10.88,0c-1.37,0 -2.19,-1.11 -1.83,-2.48l10.45,-39.62c0.6,-2.28 -1.93,-3.35 -3.9,-1.65l-27.89,24.08c-1.28,1.11 -3.01,1.1 -3.7,-0.01l-14.97,-24.03c-1.06,-1.71 -4.17,-0.64 -4.77,1.65l-10.44,39.58c-0.36,1.37 -1.77,2.48 -3.14,2.48l-2.96,0c-1.37,0 -2.18,-1.11 -1.82,-2.48z" fill="#ED1C24" id="svg_163"/>
     <path class="st5" d="m388.34074,328.96609l-3.02,0c-1.15,0 -1.97,-0.79 -1.91,-1.92c0.26,-4.62 -1.67,-6.94 -5.8,-6.94c-2.17,0 -4.26,0.87 -6.28,2.61c-2.01,1.74 -3.34,3.82 -3.98,6.25l-6.99,26.49c-0.63,2.37 -0.4,4.43 0.69,6.17c1.08,1.74 2.72,2.61 4.92,2.61c4.12,0 7.27,-2.29 9.43,-6.86c0.53,-1.13 1.77,-1.92 2.92,-1.92l3.01,0c1.48,0 2.32,1.29 1.74,2.76c-3.9,9.92 -10.38,14.88 -19.44,14.88l-7.92,0c-4.32,0 -7.57,-1.73 -9.75,-5.19s-2.64,-7.61 -1.36,-12.44l6.99,-26.49c1.29,-4.88 3.94,-9.06 7.97,-12.52c4.02,-3.46 8.18,-5.19 12.47,-5.19l7.92,0c9.12,0 12.98,4.99 11.58,14.97c-0.2,1.45 -1.72,2.73 -3.19,2.73z" fill="#ED1C24" id="svg_164"/>
     <path class="st5" d="m427.94074,328.96609l18.72,0c1.37,0 2.19,1.11 1.83,2.48l-6.33,24.01c-1.54,5.85 -4.39,10.25 -8.54,13.2s-8.11,4.43 -11.88,4.43l-15.84,0c-4.32,0 -7.57,-1.73 -9.75,-5.19s-2.64,-7.61 -1.36,-12.44l11.66,-44.21c1.25,-4.75 3.86,-8.87 7.84,-12.38c3.97,-3.5 8.17,-5.26 12.58,-5.26l15.84,0c9.11,0 12.98,4.96 11.6,14.89c-0.2,1.46 -1.72,2.75 -3.19,2.75l-3.1,0c-1.15,0 -1.97,-0.79 -1.91,-1.92c0.25,-4.57 -1.66,-6.85 -5.74,-6.85l-7.92,0c-2.17,0 -4.26,0.86 -6.27,2.59c-2.01,1.73 -3.33,3.79 -3.96,6.19l-11.66,44.21c-0.64,2.43 -0.41,4.5 0.69,6.21s2.74,2.57 4.91,2.57c5.11,-0.28 8.52,-3.2 10.24,-8.78l4.02,-15.23c0.36,-1.37 -0.46,-2.48 -1.83,-2.48l-2.96,0c-1.37,0 -2.19,-1.11 -1.83,-2.48l1.01,-3.81c0.35,-1.39 1.76,-2.5 3.13,-2.5z" fill="#ED1C24" id="svg_165"/>
     <path class="st5" d="m467.44074,299.99609l1.03,-3.89c0.36,-1.37 1.77,-2.48 3.14,-2.48l10.8,0c1.37,0 2.19,1.11 1.83,2.48l-1.03,3.89c-0.36,1.37 -1.77,2.48 -3.14,2.48l-10.8,0c-1.38,0 -2.19,-1.11 -1.83,-2.48zm-18.63,70.62l15.01,-56.88c0.36,-1.37 1.77,-2.48 3.14,-2.48l10.8,0c1.37,0 2.19,1.11 1.83,2.48l-15.01,56.88c-0.36,1.37 -1.77,2.48 -3.14,2.48l-10.8,0c-1.38,0 -2.19,-1.11 -1.83,-2.48z" fill="#ED1C24" id="svg_166"/>
     <path class="st5" d="m475.30074,370.61609l19.66,-74.51c0.36,-1.37 1.77,-2.48 3.14,-2.48l10.8,0c1.37,0 2.19,1.11 1.83,2.48l-19.66,74.51c-0.36,1.37 -1.77,2.48 -3.14,2.48l-10.8,0c-1.37,0 -2.19,-1.11 -1.83,-2.48z" fill="#ED1C24" id="svg_167"/>
     <path class="st5" d="m501.79074,370.61609l19.66,-74.51c0.36,-1.37 1.77,-2.48 3.14,-2.48l10.8,0c1.37,0 2.19,1.11 1.83,2.48l-19.66,74.51c-0.36,1.37 -1.77,2.48 -3.14,2.48l-10.8,0c-1.37,0 -2.19,-1.11 -1.83,-2.48z" fill="#ED1C24" id="svg_168"/>
    </g>
    <g id="svg_169">
     <path class="st5" d="m224.62074,474.04609l19.66,-74.51c0.36,-1.37 1.77,-2.48 3.14,-2.48l32.85,0c4.83,0 8.51,1.74 11.06,5.22c2.54,3.48 3.18,7.62 1.92,12.42l-1.18,4.47c-1.36,5.16 -3.9,9.22 -7.62,12.17c-1.48,1.18 -3.15,2.18 -5.01,2.99c-2.03,0.89 -2.7,3.47 -1.17,4.39c1.42,0.85 2.53,1.98 3.33,3.4c2,3.55 2.39,7.65 1.16,12.31l-1.18,4.47c-1.26,4.77 -4.09,8.91 -8.5,12.4s-9,5.24 -13.77,5.24l-32.87,0c-1.37,-0.01 -2.19,-1.12 -1.82,-2.49zm29.26,-44.12c-0.36,1.37 0.46,2.48 1.83,2.48l6.37,0c2.4,0 4.71,-0.88 6.92,-2.63c2.21,-1.75 3.64,-3.83 4.27,-6.23l2.34,-8.86c0.63,-2.4 0.3,-4.46 -0.99,-6.19c-1.3,-1.72 -3.14,-2.59 -5.54,-2.59l-6.37,0c-1.37,0 -2.77,1.11 -3.14,2.48l-5.69,21.54zm-9.3,35.26c-0.36,1.37 0.46,2.48 1.83,2.48l6.37,0c2.4,0 4.7,-0.87 6.91,-2.61s3.63,-3.79 4.25,-6.17l4.02,-15.23c0.36,-1.37 -0.46,-2.48 -1.83,-2.48l-12.74,0c-1.37,0 -2.77,1.11 -3.14,2.48l-5.67,21.53z" fill="#ED1C24" id="svg_170"/>
     <path class="st5" d="m301.36074,476.52609c-1.37,0 -2.19,-1.11 -1.83,-2.48l15.66,-59.36c1.27,-4.83 4.1,-8.98 8.47,-12.44s8.98,-5.2 13.8,-5.2l17.71,0c4.83,0 8.51,1.74 11.06,5.22c2.54,3.48 3.18,7.62 1.92,12.42l-15.66,59.36c-0.36,1.37 -1.77,2.48 -3.14,2.48l-12.66,0c-1.37,0 -2.19,-1.11 -1.83,-2.48l8.02,-30.39c0.36,-1.37 -0.46,-2.48 -1.83,-2.48l-12.74,0c-1.37,0 -2.77,1.11 -3.14,2.48l-8.02,30.39c-0.36,1.37 -1.77,2.48 -3.14,2.48l-12.65,0zm29.26,-44.12l12.74,0c1.37,0 2.77,-1.11 3.14,-2.48l4.02,-15.23c0.63,-2.4 0.3,-4.46 -0.99,-6.19c-1.3,-1.72 -3.14,-2.59 -5.54,-2.59c-2.43,0 -4.74,0.86 -6.93,2.59c-2.19,1.72 -3.61,3.79 -4.24,6.19l-4.02,15.23c-0.36,1.37 0.45,2.48 1.82,2.48z" fill="#ED1C24" id="svg_171"/>
     <path class="st5" d="m436.38074,397.05609c1.37,0 2.19,1.11 1.83,2.48l-15.66,59.36c-1.54,5.85 -4.18,10.25 -7.91,13.21c-3.73,2.95 -8.52,4.43 -14.37,4.43l-17.71,0c-5.85,0 -9.86,-1.48 -12.03,-4.43c-2.17,-2.95 -2.49,-7.35 -0.94,-13.21l4.02,-15.23c0.36,-1.37 1.77,-2.48 3.14,-2.48l12.66,0c1.37,0 2.19,1.11 1.83,2.48l-4.02,15.23c-0.63,2.4 -0.3,4.46 0.99,6.19c1.3,1.72 3.14,2.59 5.54,2.59c2.43,0 4.74,-0.86 6.93,-2.59c2.19,-1.72 3.61,-3.79 4.24,-6.19l15.66,-59.36c0.36,-1.37 1.77,-2.48 3.14,-2.48l12.66,0l0,0z" fill="#ED1C24" id="svg_172"/>
     <path class="st5" d="m442.43074,476.52609c-1.37,0 -2.19,-1.11 -1.83,-2.48l15.66,-59.36c1.27,-4.83 4.1,-8.98 8.47,-12.44s8.98,-5.2 13.8,-5.2l17.71,0c4.83,0 8.51,1.74 11.06,5.22c2.54,3.48 3.18,7.62 1.92,12.42l-15.66,59.36c-0.36,1.37 -1.77,2.48 -3.14,2.48l-12.66,0c-1.37,0 -2.19,-1.11 -1.83,-2.48l8.02,-30.39c0.36,-1.37 -0.46,-2.48 -1.83,-2.48l-12.74,0c-1.37,0 -2.77,1.11 -3.14,2.48l-8.02,30.39c-0.36,1.37 -1.77,2.48 -3.14,2.48l-12.65,0zm29.26,-44.12l12.74,0c1.37,0 2.77,-1.11 3.14,-2.48l4.02,-15.23c0.63,-2.4 0.3,-4.46 -0.99,-6.19c-1.3,-1.72 -3.14,-2.59 -5.54,-2.59c-2.43,0 -4.74,0.86 -6.93,2.59c-2.19,1.72 -3.61,3.79 -4.24,6.19l-4.02,15.23c-0.37,1.37 0.45,2.48 1.82,2.48z" fill="#ED1C24" id="svg_173"/>
    </g>
   </g>
  </g>
  <g id="Layer_8" class="st0" display="none">
   <g class="st1" display="inline" id="svg_174">
    <g id="svg_175">
     <path class="st5" d="m250.97074,370.65609l19.66,-74.51c0.36,-1.37 1.77,-2.48 3.14,-2.48l0,0c0.71,0 1.3,0.3 1.63,0.83l21.99,34.78c0.7,1.1 2.42,1.1 3.7,0l40.3,-34.78c0.61,-0.53 1.36,-0.83 2.07,-0.83l4.33,0c1.37,0 2.19,1.11 1.83,2.48l-19.66,74.51c-0.36,1.37 -1.77,2.48 -3.14,2.48l-10.88,0c-1.37,0 -2.19,-1.11 -1.83,-2.48l10.45,-39.62c0.6,-2.28 -1.93,-3.35 -3.9,-1.65l-27.89,24.08c-1.28,1.11 -3.01,1.1 -3.7,-0.01l-14.97,-24.03c-1.06,-1.71 -4.17,-0.64 -4.77,1.65l-10.44,39.58c-0.36,1.37 -1.77,2.48 -3.14,2.48l-2.96,0c-1.37,0 -2.18,-1.11 -1.82,-2.48z" fill="#ED1C24" id="svg_176"/>
     <path class="st5" d="m385.32074,329.00609c-1.15,0 -1.97,-0.79 -1.91,-1.92c0.26,-4.62 -1.67,-6.94 -5.8,-6.94c-2.17,0 -4.26,0.87 -6.28,2.61c-2.01,1.74 -3.34,3.82 -3.98,6.25l-6.99,26.49c-0.63,2.37 -0.4,4.43 0.69,6.17c1.08,1.74 2.72,2.61 4.92,2.61c4.12,0 7.27,-2.29 9.43,-6.86c0.53,-1.13 1.77,-1.92 2.92,-1.92l3.01,0c1.48,0 2.32,1.29 1.74,2.76c-3.9,9.92 -10.38,14.88 -19.44,14.88l-7.92,0c-4.32,0 -7.57,-1.73 -9.75,-5.19s-2.64,-7.61 -1.36,-12.44l6.99,-26.49c1.29,-4.88 3.94,-9.06 7.97,-12.52c4.02,-3.46 8.18,-5.19 12.47,-5.19l7.92,0c9.92,0 13.62,5.91 11.09,17.72l-5.72,-0.02z" fill="#ED1C24" id="svg_177"/>
     <path class="st5" d="m427.94074,329.00609l18.72,0c1.37,0 2.19,1.11 1.83,2.48l-6.33,24.01c-1.54,5.85 -4.39,10.25 -8.54,13.2s-8.11,4.43 -11.88,4.43l-15.84,0c-4.32,0 -7.57,-1.73 -9.75,-5.19s-2.64,-7.61 -1.36,-12.44l11.66,-44.21c1.25,-4.75 3.86,-8.87 7.84,-12.38c3.97,-3.5 8.17,-5.26 12.58,-5.26l15.84,0c9.92,0 13.62,5.88 11.11,17.63l-5.8,0c-1.15,0 -1.97,-0.79 -1.91,-1.92c0.25,-4.57 -1.66,-6.85 -5.74,-6.85l-7.92,0c-2.17,0 -4.26,0.86 -6.27,2.59c-2.01,1.73 -3.33,3.79 -3.96,6.19l-11.66,44.21c-0.64,2.43 -0.41,4.5 0.69,6.21s2.74,2.57 4.91,2.57c5.11,-0.28 8.52,-3.2 10.24,-8.78l4.02,-15.23c0.36,-1.37 -0.46,-2.48 -1.83,-2.48l-2.96,0c-1.37,0 -2.19,-1.11 -1.83,-2.48l1.01,-3.81c0.35,-1.38 1.76,-2.49 3.13,-2.49z" fill="#ED1C24" id="svg_178"/>
     <path class="st5" d="m467.44074,300.03609l1.03,-3.89c0.36,-1.37 1.77,-2.48 3.14,-2.48l10.8,0c1.37,0 2.19,1.11 1.83,2.48l-1.03,3.89c-0.36,1.37 -1.77,2.48 -3.14,2.48l-10.8,0c-1.38,0 -2.19,-1.11 -1.83,-2.48zm-18.63,70.62l15.01,-56.88c0.36,-1.37 1.77,-2.48 3.14,-2.48l10.8,0c1.37,0 2.19,1.11 1.83,2.48l-15.01,56.88c-0.36,1.37 -1.77,2.48 -3.14,2.48l-10.8,0c-1.38,0 -2.19,-1.11 -1.83,-2.48z" fill="#ED1C24" id="svg_179"/>
     <path class="st5" d="m475.30074,370.65609l19.66,-74.51c0.36,-1.37 1.77,-2.48 3.14,-2.48l10.8,0c1.37,0 2.19,1.11 1.83,2.48l-19.66,74.51c-0.36,1.37 -1.77,2.48 -3.14,2.48l-10.8,0c-1.37,0 -2.19,-1.11 -1.83,-2.48z" fill="#ED1C24" id="svg_180"/>
     <path class="st5" d="m501.79074,370.65609l19.66,-74.51c0.36,-1.37 1.77,-2.48 3.14,-2.48l10.8,0c1.37,0 2.19,1.11 1.83,2.48l-19.66,74.51c-0.36,1.37 -1.77,2.48 -3.14,2.48l-10.8,0c-1.37,0 -2.19,-1.11 -1.83,-2.48z" fill="#ED1C24" id="svg_181"/>
    </g>
    <g id="svg_182">
     <path class="st5" d="m224.62074,474.08609l19.66,-74.51c0.36,-1.37 1.77,-2.48 3.14,-2.48l32.85,0c4.83,0 8.51,1.74 11.06,5.22c2.54,3.48 3.18,7.62 1.92,12.42l-1.18,4.47c-1.36,5.16 -3.9,9.22 -7.62,12.17c-1.48,1.18 -3.15,2.18 -5.01,2.99c-2.03,0.89 -2.7,3.47 -1.17,4.39c1.42,0.85 2.53,1.98 3.33,3.4c2,3.55 2.39,7.65 1.16,12.31l-1.18,4.47c-1.26,4.77 -4.09,8.91 -8.5,12.4s-9,5.24 -13.77,5.24l-32.87,0c-1.37,-0.01 -2.19,-1.12 -1.82,-2.49zm29.26,-44.13c-0.36,1.37 0.46,2.48 1.83,2.48l6.37,0c2.4,0 4.71,-0.88 6.92,-2.63c2.21,-1.75 3.64,-3.83 4.27,-6.23l2.34,-8.86c0.63,-2.4 0.3,-4.46 -0.99,-6.19c-1.3,-1.72 -3.14,-2.59 -5.54,-2.59l-6.37,0c-1.37,0 -2.77,1.11 -3.14,2.48l-5.69,21.54zm-9.3,35.27c-0.36,1.37 0.46,2.48 1.83,2.48l6.37,0c2.4,0 4.7,-0.87 6.91,-2.61s3.63,-3.79 4.25,-6.17l4.02,-15.23c0.36,-1.37 -0.46,-2.48 -1.83,-2.48l-12.74,0c-1.37,0 -2.77,1.11 -3.14,2.48l-5.67,21.53z" fill="#ED1C24" id="svg_183"/>
     <path class="st5" d="m301.36074,476.56609c-1.37,0 -2.19,-1.11 -1.83,-2.48l15.66,-59.36c1.27,-4.83 4.1,-8.98 8.47,-12.44s8.98,-5.2 13.8,-5.2l17.71,0c4.83,0 8.51,1.74 11.06,5.22c2.54,3.48 3.18,7.62 1.92,12.42l-15.66,59.36c-0.36,1.37 -1.77,2.48 -3.14,2.48l-12.66,0c-1.37,0 -2.19,-1.11 -1.83,-2.48l8.02,-30.39c0.36,-1.37 -0.46,-2.48 -1.83,-2.48l-12.74,0c-1.37,0 -2.77,1.11 -3.14,2.48l-8.02,30.39c-0.36,1.37 -1.77,2.48 -3.14,2.48l-12.65,0l0,0zm29.26,-44.12l12.74,0c1.37,0 2.77,-1.11 3.14,-2.48l4.02,-15.23c0.63,-2.4 0.3,-4.46 -0.99,-6.19c-1.3,-1.72 -3.14,-2.59 -5.54,-2.59c-2.43,0 -4.74,0.86 -6.93,2.59c-2.19,1.72 -3.61,3.79 -4.24,6.19l-4.02,15.23c-0.36,1.37 0.45,2.48 1.82,2.48z" fill="#ED1C24" id="svg_184"/>
     <path class="st5" d="m436.38074,397.09609c1.37,0 2.19,1.11 1.83,2.48l-15.66,59.36c-1.54,5.85 -4.18,10.25 -7.91,13.21c-3.73,2.95 -8.52,4.43 -14.37,4.43l-17.71,0c-5.85,0 -9.86,-1.48 -12.03,-4.43c-2.17,-2.95 -2.49,-7.35 -0.94,-13.21l4.02,-15.23c0.36,-1.37 1.77,-2.48 3.14,-2.48l12.66,0c1.37,0 2.19,1.11 1.83,2.48l-4.02,15.23c-0.63,2.4 -0.3,4.46 0.99,6.19c1.3,1.72 3.14,2.59 5.54,2.59c2.43,0 4.74,-0.86 6.93,-2.59c2.19,-1.72 3.61,-3.79 4.24,-6.19l15.66,-59.36c0.36,-1.37 1.77,-2.48 3.14,-2.48l12.66,0z" fill="#ED1C24" id="svg_185"/>
     <path class="st5" d="m442.43074,476.56609c-1.37,0 -2.19,-1.11 -1.83,-2.48l15.66,-59.36c1.27,-4.83 4.1,-8.98 8.47,-12.44s8.98,-5.2 13.8,-5.2l17.71,0c4.83,0 8.51,1.74 11.06,5.22c2.54,3.48 3.18,7.62 1.92,12.42l-15.66,59.36c-0.36,1.37 -1.77,2.48 -3.14,2.48l-12.66,0c-1.37,0 -2.19,-1.11 -1.83,-2.48l8.02,-30.39c0.36,-1.37 -0.46,-2.48 -1.83,-2.48l-12.74,0c-1.37,0 -2.77,1.11 -3.14,2.48l-8.02,30.39c-0.36,1.37 -1.77,2.48 -3.14,2.48l-12.65,0l0,0zm29.26,-44.12l12.74,0c1.37,0 2.77,-1.11 3.14,-2.48l4.02,-15.23c0.63,-2.4 0.3,-4.46 -0.99,-6.19c-1.3,-1.72 -3.14,-2.59 -5.54,-2.59c-2.43,0 -4.74,0.86 -6.93,2.59c-2.19,1.72 -3.61,3.79 -4.24,6.19l-4.02,15.23c-0.37,1.37 0.45,2.48 1.82,2.48z" fill="#ED1C24" id="svg_186"/>
    </g>
   </g>
  </g>
 </g>

</svg>