<?xml version="1.0" encoding="UTF-8"?> <svg xmlns="http://www.w3.org/2000/svg" width="128" height="22" viewBox="0 0 128 22" fill="none"><path d="M35.9402 12.9383H41.664L38.842 4.87177L35.9402 12.9383ZM44.5658 21.1646L42.7555 16.0265H34.8486L33.0383 21.1646H28.8853L36.5791 0.266113H40.9452L48.9052 21.1646H44.5658Z" fill="white"></path><path d="M59.0215 3.67388C55.1347 3.67388 52.1796 6.9218 52.1796 10.7288C52.1796 14.5091 55.1879 17.7304 59.0215 17.7304C62.8551 17.7304 65.8635 14.5091 65.8635 10.7288C65.8901 6.94842 62.9084 3.67388 59.0215 3.67388ZM59.0215 21.4576C53.1114 21.4576 48.2395 16.7188 48.2395 10.782C48.2395 4.79201 53.0581 0 59.0215 0C64.9849 0 69.8036 4.79201 69.8036 10.782C69.8036 16.7188 64.9317 21.4576 59.0215 21.4576Z" fill="white"></path><path d="M85.6438 0.266113H89.6371V21.1646H85.6438L76.0065 6.70871V21.1646H72.0398V0.266113H76.0065L85.6438 14.722V0.266113Z" fill="white"></path><path d="M103.561 10.2496C104.652 10.7022 105.478 11.3411 106.09 12.2196C106.702 13.0982 106.995 14.1364 106.995 15.3078C106.995 17.1448 106.303 18.6356 104.892 19.7537C103.481 20.8719 101.644 21.4309 99.3544 21.4309C97.0915 21.4309 95.2812 20.8186 93.9501 19.6206C92.619 18.4226 91.98 16.8253 92.0067 14.8286H95.9201C95.8935 15.9201 96.213 16.7454 96.8519 17.3311C97.4908 17.9168 98.3428 18.2363 99.4077 18.2363C100.473 18.2363 101.351 17.9434 102.017 17.3844C102.682 16.8253 103.028 16.0799 103.028 15.1481C103.028 14.1631 102.682 13.4176 101.963 12.8852C101.245 12.3527 100.313 12.0865 99.1414 12.0865H97.3844V8.78536H98.822C100.047 8.78536 100.978 8.51913 101.617 8.01331C102.256 7.50749 102.576 6.81531 102.576 5.93677C102.576 5.11148 102.283 4.44592 101.671 3.9401C101.058 3.43428 100.26 3.19467 99.2745 3.19467C98.1564 3.19467 97.3045 3.51414 96.7454 4.12646C96.1864 4.73877 95.8935 5.56406 95.9468 6.57571H92.0067C91.9268 4.60566 92.5657 3.03494 93.9235 1.81032C95.2812 0.612312 97.0915 0 99.3544 0C101.458 0 103.161 0.505823 104.519 1.54409C105.877 2.58236 106.542 3.9401 106.542 5.67055C106.542 6.65557 106.276 7.56073 105.77 8.3594C105.238 9.15807 104.519 9.797 103.561 10.2496Z" fill="#1950FF"></path><path d="M113.118 17.7836H116.872C119.135 17.7836 120.839 17.1446 122.037 15.8668C123.235 14.5889 123.82 12.8585 123.82 10.6754C123.82 8.38591 123.208 6.65546 121.957 5.43084C120.705 4.23283 119.028 3.62052 116.898 3.62052H113.118V17.7836ZM109.151 21.1646V0.266113H117.218C120.492 0.266113 123.128 1.22452 125.072 3.1147C127.015 5.00488 128 7.56062 128 10.7287C128 13.9233 127.015 16.4525 125.072 18.3426C123.128 20.2328 120.492 21.1646 117.218 21.1646H109.151Z" fill="#1950FF"></path><path d="M0 0V5.91015L23.3744 14.4825L25.2912 9.26456L0 0Z" fill="#1950FF"></path><path d="M5.24463 15.175V21.4579L19.6207 15.9205L11.2613 12.8589L5.24463 15.175Z" fill="#1950FF"></path></svg> 