<?xml version="1.0" encoding="UTF-8"?>
<svg xmlns="http://www.w3.org/2000/svg" viewBox="0 0 805.37 90.06"><defs><style>.cls-1{fill:#fff;}</style></defs><title>MONMETAL SVG</title><g id="Layer_2" data-name="Layer 2"><g id="Layer_1-2" data-name="Layer 1"><polygon class="cls-1" points="87.21 1.29 87.22 90.06 0 90.06 87.21 1.29"/><path class="cls-1" d="M281.9,12c-8-8.64-20.2-12-34-12S222,3.07,213.64,11.71s-11.52,20.63-11.52,33.47,3.15,24.17,11,33S232.88,90.06,247,90.06c13.79,0,26.52-2.72,34.88-11.1s10.83-20,10.83-33.58C292.74,32.41,289.94,20.61,281.9,12ZM228.27,46.69q0-26.19,19.26-26.2,9.75,0,14.38,6.87t4.63,19c0,9.92-1.83,15.88-5.57,19.65a18.58,18.58,0,0,1-13.71,5.66q-9.13,0-14-6.56C229.94,60.7,228.27,55.17,228.27,46.69Z"/><polygon class="cls-1" points="94.79 1.29 94.81 90.06 116.73 90.06 116.73 22.75 135.02 90.06 154.87 90.06 171.79 23.61 171.79 90.06 194.57 90.06 194.56 1.29 158.83 1.29 144.69 55.02 130.35 1.29 94.79 1.29"/><polygon class="cls-1" points="392.17 1.29 392.18 90.06 414.1 90.06 414.1 22.75 432.4 90.06 452.25 90.06 469.16 23.61 469.16 90.06 491.94 90.06 491.93 1.29 456.2 1.29 442.06 55.02 427.72 1.29 392.17 1.29"/><path class="cls-1" d="M358.88,1.29h25.71V89.83H358.88l-32.8-48v48s-26.41.52-25.89,0,0-88.54,0-88.54h25l34,49.36Z"/><polygon class="cls-1" points="568.68 20.91 568.67 1.29 526.67 1.29 499.52 1.29 499.53 20.91 499.53 34.48 499.53 53.01 499.53 69.92 499.53 90.06 526.68 90.06 568.68 90.06 568.68 69.92 526.68 69.92 526.68 53.01 568.68 53.01 568.68 34.48 526.68 34.48 526.68 20.91 568.68 20.91"/><polygon class="cls-1" points="576.26 1.29 576.27 19.91 600.09 19.91 600.09 90.06 626.67 90.06 626.67 19.91 651.18 19.91 651.17 1.29 576.26 1.29"/><polygon class="cls-1" points="768.42 69.03 768.41 1.29 741.83 1.29 741.84 90.06 747 90.06 768.42 90.06 805.37 90.06 805.37 69.03 768.42 69.03"/><path class="cls-1" d="M701.08,1.29H670.42L637.49,90.06h24.45l5.52-14.73h36.72l5.52,14.73h24.56ZM674.53,56.46l11.29-30.13,11.29,30.13Z"/></g></g></svg>