<svg xmlns="http://www.w3.org/2000/svg" viewBox="0 0 361.97 163.2"><defs><style>.d{fill:#fff}</style></defs><g id="b"><g id="c"><path class="d" d="M104.24 58.2c3.8 1.93 5.6 5.4 5.6 9.53-.07 8.13-5 14.73-14.53 14.73H73.44V35.8h19.93c8.07 0 14.53 6.27 14.53 14.34 0 2.8-1.4 6.2-3.67 8.07M84.96 46.48v7.67h7.53c4.73 0 4.73-7.67-.07-7.67h-7.47Zm0 17.47v7.93h9.53c4.8 0 4.73-7.93-.07-7.93h-9.47ZM139.85 68.54c0-3.27-3.87-3.8-8.53-4.07-10.13-.73-16.8-4.2-16.93-14.33-.4-20.13 35.87-20.13 35.6 0h-11.33c0-6.2-12.53-5.67-12.93-.14-.27 3.53 3.2 4.27 7.4 4.73 9.27 1 18.33 2.2 18.33 13.87 0 19.6-38 20.13-37.73-.4h11.53c0 5.93 14.6 5.8 14.6.33M110.84 121.08V89.95H99.31v30.93c0 3.8-3.6 5.67-7.07 5.67s-7.13-1.87-7.13-5.67V89.95h-47.8v10.47h10.83v36h11.8v-36h13.77v20.66c0 10.27 9 16.2 18.53 16.2s18.6-5.93 18.6-16.2M146.57 112.35c3.8 1.93 5.6 5.4 5.6 9.53-.07 8.13-5 14.73-14.53 14.73h-21.87V89.94h19.93c8.07 0 14.53 6.27 14.53 14.34 0 2.8-1.4 6.2-3.67 8.07m-19.26-11.73v7.67h7.53c4.73 0 4.73-7.67-.07-7.67h-7.47Zm0 17.47v7.93h9.53c4.8 0 4.73-7.93-.07-7.93h-9.46ZM153.91 113.35c0-32.27 47.86-32.27 47.86 0s-47.86 32.33-47.86 0m35.67 0c0-16.8-23.4-16.8-23.4 0s23.4 16.93 23.4 0M241.66 136.61l-1.13-2.13c-14.13 7.53-35.67.4-35.67-21.13 0-32.26 47.86-32.26 47.86 0 0 5.53-1.4 10.13-3.73 13.8l4.8 7.93v1.53h-12.13Zm-1.2-23.27c0-16.8-23.33-16.8-23.33 0s23.33 16.93 23.33 0M281.95 120.88V89.95h11.53v31.13c0 10.27-9 16.2-18.6 16.2s-18.53-5.93-18.53-16.2V89.95h11.4v30.93c0 3.8 3.67 5.67 7.13 5.67s7.07-1.87 7.07-5.67M320.53 126.15v10.46h-23.66v-10.46h5.93v-25.8h-5.47v-10.4h22.74v10.4h-5.47v25.8h5.93zM324.69 136.61V89.94h20.53c22.33.07 22.33 34.73 0 34.73h-8.6v11.93h-11.93Zm20.47-36c-2.8-.07-5.8 0-8.53 0v13.33h8.53c6.53 0 6.93-13.26 0-13.33M67.12 72v10.47H40.9V72h7.21V46.2h-6.75V35.8h25.29v10.4h-6.74V72h7.21zM48.94 32.78l.04.3s0 .08.01.11h17.86v-2.14l-6.14-1.6c-.26-1.43-.63-2.85-1.1-4.24l4.48-4.31-3.76-6.61-6.12 1.68c-.5-.59-.99-1.13-1.48-1.62-.49-.5-1.02-.99-1.6-1.5l1.76-6.09-6.56-3.84-4.37 4.42c-1.38-.49-2.8-.88-4.22-1.16L36.22.02 33.79 0v17.68c7.97.62 14.51 7.02 15.15 15.1M31.61 66.95v-18h-3.48v.92a16.518 16.518 0 0 1-10.92-10.61h.83v-3.47h-18v3.47h2.14C4.39 52.42 14.9 62.8 28.13 64.83v2.12h3.48ZM4.84 26.82C1.41 30.19 0 33.2 0 33.2h3.91c.07-2.14.38-4.28.94-6.38M29 17.68c-3.28 0-6.24.35-8.88.96l-.2.17-.19.07-.17-.05s-.03-.03-.05-.04c-2.17.53-4.13 1.23-5.89 2.04a4.29 4.29 0 0 0 3.4.11c.04-.01.07-.02.11-.02.09 0 .18.04.23.12.08.11.07.25-.01.35a20.164 20.164 0 0 0-2.88 4.67.28.28 0 0 1-.26.17h-.05a.308.308 0 0 1-.24-.27 4.41 4.41 0 0 0-.42-1.6 4.245 4.245 0 0 0-2.45-2.18c-.01 0-.02 0-.03-.01-2.4 1.38-4.35 2.92-5.91 4.41h.04c.14.01.25.11.27.25.23 1.6 1.31 2.93 2.81 3.45.45.16.92.23 1.38.23 1.22 0 2.42-.52 3.25-1.46.05-.07.13-.1.21-.1.05 0 .09.01.14.03.12.06.18.2.14.32-.32 1.28-.52 2.54-.58 3.75v.16h3.49c.43-8.28 7-14.91 15.25-15.45-.86-.05-1.69-.07-2.51-.07"/><path class="d" d="M31.51 1.32h-.03C14.32 2.01.49 15.98 0 33.15v.05s1.41-3.01 4.84-6.38c0-.02.01-.03.01-.05.03-.12.13-.19.26-.21 1.56-1.49 3.51-3.04 5.91-4.41-.45-.16-.91-.23-1.36-.23-1.08 0-2.15.42-2.97 1.21a.297.297 0 0 1-.37.03.295.295 0 0 1-.1-.35 29.37 29.37 0 0 1 4.69-7.49c.06-.07.14-.1.22-.1.05 0 .1.01.14.04.12.07.17.21.13.34-.16.48-.24.92-.24 1.35 0 1.15.45 2.22 1.26 3.03.35.35.75.63 1.19.83 1.76-.8 3.72-1.5 5.89-2.04a.3.3 0 0 1-.06-.3c.61-1.58.23-3.37-.97-4.58a4.231 4.231 0 0 0-3-1.24c-.47 0-.95.08-1.41.24-.03.01-.06.02-.09.02-.1 0-.2-.05-.25-.14a.29.29 0 0 1 .06-.36c2.29-2 4.85-3.63 7.63-4.83.04-.02.07-.02.11-.02.09 0 .19.05.24.13.08.11.06.27-.04.36-.38.37-.68.77-.88 1.21a4.263 4.263 0 0 0 3.49 6.1c.13.01.24.11.26.24.02.13-.05.26-.16.31-1.55.71-3.01 1.62-4.33 2.71 2.65-.6 5.6-.96 8.88-.96.82 0 1.65.02 2.51.07v-3.62l-.23.02c-1.1.08-2.22.27-3.34.55h-.07c-.11 0-.2-.05-.25-.15a.289.289 0 0 1 .06-.35c1.23-1.15 1.65-2.92 1.1-4.52-.55-1.57-1.99-2.68-3.66-2.84-.14-.02-.25-.12-.26-.26s.07-.27.21-.3c2.11-.59 4.28-.94 6.45-1.04v-3.9ZM47.9 151.76h5.79v1.23h-4.42v2.03h3.91v1.22h-3.91v2.1h4.47v1.23H47.9v-7.81zM57.23 151.76h1.27l4.18 5.4v-5.4h1.35v7.81h-1.15l-4.3-5.56v5.56h-1.35v-7.81zM69.81 153.03h-2.48v-1.27h6.33v1.27h-2.47v6.54h-1.38v-6.54zM80.36 155.63c.98 0 1.61-.51 1.61-1.3v-.02c0-.84-.6-1.29-1.62-1.29h-2v2.62h2.01Zm-3.38-3.87h3.48c.98 0 1.75.29 2.25.78.41.42.65 1 .65 1.68v.02c0 1.28-.77 2.05-1.86 2.36l2.11 2.95h-1.62l-1.92-2.72h-1.72v2.72h-1.37v-7.8ZM86.9 151.76h5.79v1.23h-4.41v2.03h3.91v1.22h-3.91v2.1h4.47v1.23H86.9v-7.81zM99.19 155.82c1.04 0 1.68-.58 1.68-1.39v-.02c0-.92-.66-1.39-1.68-1.39H97.6v2.81h1.59Zm-2.97-4.06h3.08c1.82 0 2.97 1.04 2.97 2.61v.02c0 1.75-1.4 2.66-3.12 2.66H97.6v2.51h-1.37v-7.8ZM108.91 155.63c.98 0 1.61-.51 1.61-1.3v-.02c0-.84-.6-1.29-1.62-1.29h-2v2.62h2.01Zm-3.38-3.87h3.48c.98 0 1.75.29 2.25.78.41.42.65 1 .65 1.68v.02c0 1.28-.77 2.05-1.86 2.36l2.11 2.95h-1.62l-1.92-2.72h-1.72v2.72h-1.37v-7.8ZM115.53 151.76h1.37v7.8h-1.37zM120.33 158.43l.82-.98c.75.65 1.49 1.01 2.46 1.01.85 0 1.38-.39 1.38-.98v-.02c0-.56-.31-.86-1.76-1.19-1.66-.4-2.6-.89-2.6-2.33v-.02c0-1.34 1.12-2.26 2.66-2.26 1.14 0 2.04.35 2.83.98l-.73 1.04c-.7-.52-1.4-.8-2.12-.8-.8 0-1.27.41-1.27.93v.02c0 .6.36.87 1.85 1.23 1.65.4 2.51.99 2.51 2.29v.02c0 1.46-1.15 2.33-2.79 2.33a4.77 4.77 0 0 1-3.25-1.25M129.84 151.76h5.79v1.23h-4.42v2.03h3.91v1.22h-3.91v2.1h4.47v1.23h-5.84v-7.81z"/><g><path class="d" d="M147.29 158.32c1.64 0 2.71-1.1 2.71-2.63v-.02c0-1.53-1.07-2.65-2.71-2.65h-1.54v5.3h1.54Zm-2.91-6.55h2.91c2.45 0 4.15 1.68 4.15 3.88v.02c0 2.2-1.69 3.9-4.15 3.9h-2.91v-7.8ZM154.84 156.26v-4.49h1.37v4.44c0 1.45.75 2.23 1.97 2.23s1.96-.74 1.96-2.17v-4.49h1.37v4.42c0 2.33-1.31 3.5-3.35 3.5s-3.32-1.17-3.32-3.43M170.13 155.69v-.02c0-2.18 1.67-4.03 4.02-4.03 1.36 0 2.2.38 3 1.06l-.87 1.04c-.6-.51-1.19-.83-2.18-.83-1.44 0-2.53 1.26-2.53 2.75v.02c0 1.6 1.06 2.79 2.65 2.79.73 0 1.4-.24 1.88-.59v-1.46h-2v-1.19h3.32v3.28c-.77.66-1.87 1.22-3.25 1.22-2.44 0-4.05-1.74-4.05-4.01M184.46 155.63c.98 0 1.6-.51 1.6-1.3v-.02c0-.84-.6-1.29-1.62-1.29h-1.99v2.62h2.01Zm-3.38-3.87h3.48c.98 0 1.75.29 2.25.78.41.42.65 1 .65 1.68v.02c0 1.28-.77 2.05-1.86 2.36l2.11 2.95h-1.62l-1.92-2.72h-1.72v2.72h-1.37v-7.8ZM197.38 155.69v-.02c0-1.52-1.1-2.78-2.65-2.78s-2.63 1.24-2.63 2.75v.02c0 1.52 1.11 2.78 2.65 2.78s2.63-1.24 2.63-2.75m-6.72 0v-.02c0-2.2 1.69-4.03 4.09-4.03s4.07 1.82 4.07 4.01v.02c0 2.2-1.69 4.04-4.09 4.04s-4.07-1.82-4.07-4.01M202.22 156.26v-4.49h1.37v4.44c0 1.45.75 2.23 1.97 2.23s1.96-.74 1.96-2.17v-4.49h1.37v4.42c0 2.33-1.32 3.5-3.35 3.5s-3.32-1.17-3.32-3.43M215.62 155.82c1.04 0 1.68-.58 1.68-1.39v-.02c0-.92-.66-1.39-1.68-1.39h-1.59v2.81h1.59Zm-2.97-4.06h3.08c1.82 0 2.97 1.04 2.97 2.61v.02c0 1.75-1.4 2.66-3.12 2.66h-1.55v2.51h-1.37v-7.8Z"/></g><path class="d" d="M221.96 151.76h5.79v1.23h-4.41v2.03h3.91v1.22h-3.91v2.1h4.47v1.23h-5.85v-7.81zM240.99 148.39v14.52h4.02v-5.18h6.87v-3.35h-6.87v-2.46h7.6v-3.53h-11.62zM256.31 148.39h4.05v14.52h-4.05z"/><g><path class="d" d="M264.31 155.69v-.04c0-4.23 3.26-7.55 7.65-7.55 2.97 0 4.88 1.24 6.16 3.03l-3.03 2.34c-.83-1.04-1.79-1.7-3.17-1.7-2.03 0-3.46 1.72-3.46 3.84v.04c0 2.18 1.43 3.88 3.46 3.88 1.51 0 2.4-.7 3.28-1.76l3.03 2.16c-1.37 1.89-3.21 3.28-6.43 3.28-4.15 0-7.49-3.17-7.49-7.51M292.37 155.69v-.04c0-2.09-1.52-3.92-3.74-3.92s-3.67 1.78-3.67 3.88v.04c0 2.1 1.51 3.92 3.71 3.92s3.69-1.78 3.69-3.88m-11.53 0v-.04c0-4.17 3.36-7.55 7.84-7.55s7.8 3.34 7.8 7.51v.04c0 4.17-3.36 7.55-7.84 7.55s-7.8-3.34-7.8-7.51M306.04 159.34c2.41 0 4-1.33 4-3.67v-.04c0-2.32-1.6-3.67-4-3.67h-1.64v7.39h1.64Zm-5.66-10.95h5.6c5.19 0 8.2 2.99 8.2 7.18v.04c0 4.19-3.05 7.3-8.28 7.3h-5.52v-14.52Z"/></g><path class="d" d="M318.12 148.39h4.05v14.52h-4.05zM325.51 160.76l2.24-2.68c1.43 1.14 3.03 1.74 4.71 1.74 1.08 0 1.66-.37 1.66-1v-.04c0-.6-.48-.93-2.45-1.39-3.09-.71-5.48-1.58-5.48-4.57v-.04c0-2.7 2.14-4.65 5.62-4.65 2.47 0 4.4.66 5.97 1.93l-2.01 2.84c-1.33-.93-2.78-1.43-4.07-1.43-.98 0-1.45.42-1.45.94v.04c0 .66.5.96 2.51 1.41 3.34.72 5.42 1.81 5.42 4.52v.04c0 2.97-2.34 4.73-5.87 4.73-2.57 0-5.02-.81-6.8-2.41"/></g></g></svg>