<?xml version="1.0" encoding="utf-8"?>
<!-- Generator: Adobe Illustrator 14.0.0, SVG Export Plug-In . SVG Version: 6.00 Build 43363)  -->
<!DOCTYPE svg PUBLIC "-//W3C//DTD SVG 1.1//EN" "http://www.w3.org/Graphics/SVG/1.1/DTD/svg11.dtd">
<svg version="1.1" id="Layer_1" xmlns="http://www.w3.org/2000/svg" xmlns:xlink="http://www.w3.org/1999/xlink" x="0px" y="0px"
	 width="250px" height="47.931px" viewBox="-75 -14.379 250 47.931" enable-background="new -75 -14.379 250 47.931"
	 xml:space="preserve">
<g>
	<polygon fill="#E55145" points="-42.643,18.321 -57.452,17.12 -57.633,17.12 -57.495,16.983 -54.797,14.444 -75,18.141 
		-60.167,19.337 -60.007,19.337 -62.843,22.013 	"/>
	<g>
		<path fill="#E55145" d="M96.084,25.704h2.939c3.034,0,4.294,1.499,3.894,3.774v0.02c-0.4,2.256-2.238,3.872-5.329,3.872h-2.837
			L96.084,25.704z M98.122,31.134c1.18,0,2.015-0.479,2.195-1.577v-0.02c0.2-1.099-0.479-1.597-1.636-1.597h-0.42l-0.56,3.193
			H98.122L98.122,31.134z"/>
		<path fill="#E55145" d="M110.342,25.704h2.551l-1.359,7.666h-2.554L110.342,25.704z"/>
		<path fill="#E55145" d="M119.824,25.704h3.73c1.356,0,2.155,0.342,2.595,0.879c0.378,0.459,0.52,1.04,0.378,1.816v0.029
			c-0.197,1.108-0.918,1.899-1.921,2.339l1.318,2.593h-2.915l-1.057-2.197h-0.025h-0.518l-0.375,2.197h-2.555L119.824,25.704z
			 M122.836,29.337c0.618,0,1.038-0.278,1.119-0.737v-0.02c0.078-0.498-0.26-0.737-0.84-0.737h-1.119l-0.258,1.494H122.836
			L122.836,29.337z"/>
		<path fill="#E55145" d="M133.676,25.704h6.528l-0.381,2.1h-4.009l-0.142,0.776h3.73l-0.319,1.855h-3.729l-0.146,0.84h4.072
			l-0.376,2.095h-6.589L133.676,25.704z"/>
		<path fill="#E55145" d="M146.01,29.557v-0.02c0.4-2.295,2.495-3.989,4.771-3.989c1.68,0,2.674,0.815,3.115,1.992l-2.339,1.24
			c-0.178-0.537-0.518-0.938-1.216-0.938c-0.859,0-1.553,0.757-1.733,1.675v0.02c-0.181,1.001,0.298,1.699,1.138,1.699
			c0.718,0,1.196-0.4,1.614-0.957l1.896,1.196c-0.837,1.138-2.075,2.075-3.991,2.075C147.147,33.531,145.59,31.935,146.01,29.557z"
			/>
		<path fill="#E55145" d="M162.382,27.862h-2.256l0.381-2.178h7.065l-0.378,2.178h-2.254l-0.962,5.488h-2.554L162.382,27.862z"/>
	</g>
	<path fill="#E55145" d="M-60.647,0.056c-0.677,4.053-0.579,5.132-0.36,5.452c0.26,0.378,0.995,0.459,2.192,0.459h4.332
		c1.438,0,1.833-0.139,2.175-0.459c0.277-0.281,0.497-0.979,0.859-2.795h6.588c-0.718,3.809-1.479,5.771-2.97,7.031
		c-0.938,0.793-2.078,1.498-4.833,1.498h-9.482c-2.617,0-3.896-0.418-4.795-1.576c-1.378-1.68-1.675-3.672-0.36-11.221
		c1.338-7.549,2.338-9.541,4.315-11.279c1.255-1.118,2.734-1.538,5.347-1.538h8.666c2.615,0,3.932,0.417,4.812,1.538
		c1.378,1.677,1.398,3.672,0.1,11.04l-0.14,0.833c-0.142,0.74-0.363,1.018-1.198,1.018H-60.647z M-59.947-3.938h9.463
		c0.594-3.452,0.537-4.373,0.277-4.751c-0.24-0.276-0.62-0.42-2.078-0.42h-3.855c-1.214,0-1.978,0.103-2.352,0.464
		C-58.893-8.33-59.27-7.532-59.947-3.938z"/>
	<path fill="#283574" d="M-2.292,18.238h-7.366l4.189-23.751h-0.598l-10.598,22.081c-0.663,1.299-1.038,1.675-2.252,1.675h-3.355
		c-1.257,0-1.518-0.376-1.657-1.675l-2.821-22.32h-0.559l-4.233,23.99h-7.126l5.75-32.613h10.303c1.357,0,1.734,0.417,1.875,1.775
		l2.154,19.465h0.561L-9.182-12.6c0.62-1.357,1.096-1.775,2.495-1.775H3.455L-2.292,18.238z"/>
	<path fill="#283574" d="M31.025-14.375c3.213,0,4.634,0.461,5.591,1.577c1.558,1.721,2.373,4.714,0.62,14.714
		c-1.758,9.964-3.638,12.948-5.811,14.706c-1.357,1.118-2.935,1.577-6.147,1.577H15.176c-3.215,0-4.636-0.459-5.591-1.577
		c-1.558-1.777-2.378-4.741-0.62-14.706c1.758-10.022,3.633-12.993,5.811-14.714c1.357-1.116,2.935-1.577,6.147-1.577H31.025z
		 M16.033,11.749c0.281,0.283,0.676,0.42,2.156,0.42h6.189c1.477,0.044,1.936-0.137,2.314-0.42c0.5-0.415,1.296-1.575,2.756-9.818
		c1.455-8.284,1.06-9.463,0.718-9.824c-0.259-0.32-0.659-0.459-2.153-0.459h-6.191c-1.499,0-1.934,0.139-2.317,0.459
		c-0.476,0.378-1.296,1.538-2.754,9.824C15.295,10.215,15.693,11.334,16.033,11.749z"/>
	<path fill="#283574" d="M62.046-8.33l-4.671,26.549h-7.588L54.463-8.33h-9.922l1.055-6.047h27.531L72.07-8.33H62.046z"/>
	<path fill="#283574" d="M97.822-14.375c3.213,0,4.634,0.461,5.586,1.577c1.558,1.721,2.378,4.714,0.62,14.714
		c-1.756,9.964-3.631,12.948-5.809,14.706c-1.357,1.118-2.937,1.577-6.147,1.577H81.97c-3.213,0-4.631-0.459-5.588-1.577
		c-1.558-1.777-2.373-4.741-0.62-14.706c1.758-10.022,3.635-12.993,5.811-14.714c1.357-1.116,2.915-1.577,6.128-1.577H97.822z
		 M82.829,11.749c0.278,0.283,0.677,0.42,2.156,0.42h6.191c1.475,0.044,1.934-0.137,2.314-0.42c0.498-0.415,1.301-1.575,2.759-9.818
		c1.457-8.284,1.057-9.463,0.718-9.824c-0.259-0.32-0.664-0.459-2.156-0.459H88.62c-1.496,0-1.934,0.139-2.316,0.459
		c-0.474,0.378-1.299,1.538-2.757,9.824C82.07,10.215,82.471,11.334,82.829,11.749z"/>
	<path fill="#283574" d="M129.34,6.545c-0.476-0.464-1.096-0.664-3.052-0.664h-6.987l-2.178,12.337h-7.582l5.749-32.599h19.185
		c2.695,0,4.313,0.378,5.229,1.497c1.118,1.357,1.558,3.076,0.72,7.786c-1.04,5.872-3.015,7.588-6.909,8.245l-0.02,0.1
		c3.232,0.701,4.692,1.638,3.994,6.389c-0.542,3.871-0.879,6.844-0.996,8.622h-7.686c0.057-2.192,0.342-4.849,0.815-8.104
		C130.043,7.603,129.802,7.039,129.34,6.545z M128.402,0.256c1.58,0,2.075-0.181,2.397-0.42c0.54-0.459,1.118-1.357,1.597-4.009
		c0.459-2.615,0.2-3.491-0.197-3.911c-0.242-0.242-0.677-0.381-2.254-0.381h-8.105l-1.535,8.704h8.103v0.022h-0.005V0.256z"/>
	<path fill="#283574" d="M169.091,16.681c-1.159,0.981-2.736,1.538-5.352,1.538h-12.197c-2.754,0-4.272-0.381-5.19-1.436
		c-1.118-1.357-1.279-3.354-0.3-9.181h7.168c-0.477,3.216-0.462,3.956-0.2,4.288c0.241,0.278,0.676,0.42,2.019,0.42h6.946
		c1.357,0,1.975-0.098,2.355-0.42c0.376-0.317,0.698-1.297,1.035-3.248c0.278-1.638,0.322-2.341-0.02-2.756
		c-0.244-0.278-0.896-0.461-2.178-0.562l-9.741-1.016c-2.197-0.242-3.454-0.74-4.316-1.719c-1.013-1.299-1.279-3.037-0.495-7.446
		c0.739-4.155,1.896-6.472,3.63-7.971c1.162-0.979,2.793-1.538,5.254-1.538h11.284c2.791,0,4.349,0.378,5.21,1.399
		c1.094,1.399,1.357,3.176,0.439,8.906h-7.165c0.417-2.935,0.397-3.635,0.139-3.953c-0.239-0.281-0.62-0.461-1.916-0.461h-6.429
		c-1.216,0-1.738,0.103-2.077,0.378c-0.379,0.325-0.638,1.301-0.957,3.076c-0.281,1.633-0.32,2.334-0.02,2.693
		c0.275,0.322,0.778,0.381,2.175,0.562l9.842,1.018c2.199,0.239,3.413,0.696,4.233,1.677c1.037,1.257,1.276,3.071,0.495,7.505
		C171.942,12.867,170.847,15.206,169.091,16.681z"/>
</g>
</svg>
