<?xml version="1.0" encoding="UTF-8"?><svg id="Layer_2" xmlns="http://www.w3.org/2000/svg" width="2.21in" height=".25in" viewBox="0 0 159 17.7"><defs><style>.cls-1{fill:#004e97;}</style></defs><rect class="cls-1" x="127.2" y="0" width="5.3" height="17.7"/><path class="cls-1" d="M17.5,0H0V17.7H5.5v-4.9h12c3.4,0,6.1-2.7,6.1-6v-.8C23.7,2.7,20.9,0,17.5,0Zm-1.4,8.8H5.5V4h10.6c1.3,0,2.4,1.1,2.4,2.4s-1.1,2.4-2.4,2.4Z"/><path class="cls-1" d="M121.2,11.8c1.7-1.1,2.8-2.9,2.8-5.1v-.7c0-3.3-2.7-6-6.1-6h-17.5V17.7h5.5v-4.9h9.6l2.8,4.9h6.2l-3.3-5.9Zm-15.3-3V4h10.6c1.3,0,2.4,1.1,2.4,2.4s-1.1,2.4-2.4,2.4h-10.6Z"/><path class="cls-1" d="M153.6,6.6h-11.8c-.7,0-1.3-.6-1.3-1.3s.6-1.3,1.3-1.3h15.3V0h-16.3c-3,0-5.4,2.4-5.4,5.4s2.4,5.4,5.4,5.4h11.8c.7,0,1.3,.6,1.3,1.3s-.6,1.3-1.3,1.3h-16.6v4.2h17.6c3,0,5.4-2.4,5.4-5.4s-2.4-5.6-5.4-5.6Z"/><g><path class="cls-1" d="M45.2,3l-1.5,4.2,7.7,1.1v-3c0-2.9-2.4-5.3-5.3-5.3h-6.8l1.4,4.7,4.5-1.7Z"/><path class="cls-1" d="M43.7,10.4l1.5,4.2-4.5-1.7-1.4,4.7h6.8c2.9,0,5.3-2.4,5.3-5.3v-3l-7.7,1.1Z"/><path class="cls-1" d="M26.3,5.3v3l7.7-1.1-1.5-4.2,4.5,1.7,1.4-4.7h-6.8c-3,0-5.3,2.4-5.3,5.3Z"/><path class="cls-1" d="M32.5,14.6l1.5-4.2-7.7-1.1v3c0,2.9,2.4,5.3,5.3,5.3h6.8l-1.4-4.7-4.5,1.7Z"/></g><path class="cls-1" d="M60.7,13.6c-.5,0-.9-.4-.9-1V0h-5.3V13.9c0,2.1,1.7,3.7,3.7,3.7h13.3v-4.1h-10.8v.1Z"/><path class="cls-1" d="M91.5,0h-11.4C76.7,0,74,2.7,74,6v11.6h5.3v-4.8h13v4.9h5.3V6C97.6,2.7,94.9,0,91.5,0Zm.8,8.8h-13v-2.9c0-1,.8-1.9,1.9-1.9h9.2c1,0,1.9,.9,1.9,1.9v2.9Z"/></svg>